<svg xmlns="http://www.w3.org/2000/svg" version="1.1" xmlns:xlink="http://www.w3.org/1999/xlink" xmlns:svgjs="http://svgjs.dev/svgjs" viewBox="0 0 800 800" opacity="1"><defs><filter id="bbburst-blur-1" x="-100%" y="-100%" width="400%" height="400%"><feGaussianBlur in="SourceGraphic" stdDeviation="1"></feGaussianBlur></filter><filter id="bbburst-blur-2" x="-100%" y="-100%" width="400%" height="400%"><feGaussianBlur in="SourceGraphic" stdDeviation="2"></feGaussianBlur></filter><filter id="bbburst-blur-3" x="-100%" y="-100%" width="400%" height="400%"><feGaussianBlur in="SourceGraphic" stdDeviation="4"></feGaussianBlur></filter><filter id="bbburst-blur-4" x="-100%" y="-100%" width="400%" height="400%"><feGaussianBlur in="SourceGraphic" stdDeviation="12"></feGaussianBlur></filter><symbol id="bbburst-shape-1" viewBox="0 0 194 167"><path d="m97 0 96.129 166.5H.871L97 0Z"></path></symbol><symbol id="bbburst-shape-4" viewBox="0 0 149 143"><path d="M71.647 2.781c.898-2.764 4.808-2.764 5.706 0l15.445 47.534a3 3 0 0 0 2.853 2.073h49.98c2.906 0 4.115 3.719 1.764 5.427L106.96 87.193a2.999 2.999 0 0 0-1.09 3.354l15.445 47.534c.898 2.764-2.266 5.062-4.617 3.354l-40.435-29.378a3 3 0 0 0-3.526 0l-40.435 29.378c-2.351 1.708-5.515-.59-4.617-3.354L43.13 90.547a3 3 0 0 0-1.09-3.354L1.605 57.815c-2.35-1.708-1.142-5.427 1.764-5.427h49.98a3 3 0 0 0 2.853-2.073L71.647 2.781Z"></path></symbol><symbol id="bbburst-shape-6" viewBox="0 0 133 116"><path d="M59.7487 10.2513c-13.6683-13.66839-35.8291-13.66839-49.4974 0-13.66839 13.6683-13.66839 35.8291 0 49.4974l49.4974-49.4974ZM66.5 66.5 41.7513 91.2487 66.5 115.997l24.7487-24.7483L66.5 66.5Zm56.249-6.7513c13.668-13.6683 13.668-35.8291 0-49.4974-13.669-13.66839-35.8294-13.66839-49.4977 0l49.4977 49.4974Zm-112.4977 0 31.5 31.5 49.4974-49.4974-31.5-31.5-49.4974 49.4974Zm80.9974 31.5 31.5003-31.5-49.4977-49.4974-31.5 31.5 49.4974 49.4974Z"></path></symbol><symbol id="bbburst-shape-8" viewBox="0 0 87 168"><path d="m12 12 31.2546 18.0749c16.4102 9.4902 20.014 31.6325 7.4603 45.8369L36.3296 92.1884c-12.5684 14.2206-8.9394 36.3916 7.5068 45.8636L75 156" stroke-width="14" stroke-linecap="round" stroke-linejoin="round"></path></symbol><symbol id="bbburst-shape-10" viewBox="0 0 145 145"><circle cx="72.5" cy="72.5" r="61.5" fill="none" stroke-width="22"></circle></symbol></defs><use xlink:href="#bbburst-shape-4" width="8.671090538686283" opacity="0.8943625319901409" transform="matrix(0.9985908212997149,0.053069497981052524,-0.053069497981052524,0.9985908212997149,412.8169303658248,47.702809233325354)" fill="#2c2891"></use><use xlink:href="#bbburst-shape-6" width="14.348189188323614" opacity="0.785770224405826" transform="matrix(0.8468226290932148,-0.5318753941062281,0.5318753941062281,0.8468226290932148,120.6353768761025,140.11081881135038)" fill="#00a19d"></use><use xlink:href="#bbburst-shape-4" width="11.570937810504025" opacity="0.8380142524945884" transform="matrix(0.912705383473082,0.40861826070215496,-0.40861826070215496,0.912705383473082,605.1887155039524,88.25914547919723)" fill="#00a19d"></use><use xlink:href="#bbburst-shape-10" width="44.23643650259783" opacity="0.07258274448147772" transform="matrix(1.6688763746178779,0.5266418576625755,-0.5266418576625755,1.6688763746178779,927.6172772599981,-57.96452595200299)" fill="none" stroke="#ffbd9b" filter="url(#bbburst-blur-4)"></use><use xlink:href="#bbburst-shape-10" width="23.80153110670829" opacity="0.3496332316831918" transform="matrix(0.8413937024354645,0.5404226471031177,-0.5404226471031177,0.8413937024354645,897.4932153973754,84.85645218262846)" fill="none" stroke="#00a19d" filter="url(#bbburst-blur-2)"></use><use xlink:href="#bbburst-shape-4" width="9.534365529177196" opacity="0.9533381757890993" transform="matrix(0.9777153585211265,-0.209934936854029,0.209934936854029,0.9777153585211265,314.32017815996915,30.712212852474238)" fill="#00a19d"></use><use xlink:href="#bbburst-shape-8" width="34.26125635736557" opacity="0.3514904502024777" transform="matrix(0.7348261587163881,0.6782554949767216,-0.6782554949767216,0.7348261587163881,378.0932200608571,14.349185398304314)" fill="none" stroke="#2c2891" filter="url(#bbburst-blur-2)"></use><use xlink:href="#bbburst-shape-10" width="14.8291323111482" opacity="0.7987044599157241" transform="matrix(0.9975509780844636,-0.0699431635167446,0.0699431635167446,0.9975509780844636,275.9393595189471,-16.938102824938767)" fill="none" stroke="#ffa6d5"></use><use xlink:href="#bbburst-shape-6" width="26.49941594033281" opacity="0.4134404825040916" transform="matrix(0.7842290823292525,0.6204713905000121,-0.6204713905000121,0.7842290823292525,877.7880735237509,187.9743164505344)" fill="#ffbd9b" filter="url(#bbburst-blur-2)"></use><use xlink:href="#bbburst-shape-8" width="11.718642298996519" opacity="0.8847968927708424" transform="matrix(0.9086141425820254,-0.41763661225990556,0.41763661225990556,0.9086141425820254,271.9425181151528,65.89338902764518)" fill="none" stroke="#ffa6d5"></use><use xlink:href="#bbburst-shape-4" width="9.51365092303475" opacity="0.9472092395981098" transform="matrix(0.999425640551473,0.033887888814116134,-0.033887888814116134,0.999425640551473,389.05665702416985,-13.133069659714067)" fill="#00a19d"></use><use xlink:href="#bbburst-shape-10" width="7.899844798998576" opacity="0.8906062726746491" transform="matrix(0.8479618591173158,-0.5300572473632499,0.5300572473632499,0.8479618591173158,173.57237756156502,14.939216349583717)" fill="none" stroke="#ffa6d5"></use><use xlink:href="#bbburst-shape-6" width="41.21279635705565" opacity="0.4959919425192355" transform="matrix(0.8604498787894393,-0.509535088184552,0.509535088184552,0.8604498787894393,-1.660219845364395,204.15423124454458)" fill="#ffbd9b" filter="url(#bbburst-blur-2)"></use><use xlink:href="#bbburst-shape-1" width="29.901199745219788" opacity="0.5361580845638005" transform="matrix(0.966648597931931,0.2561063999907694,-0.2561063999907694,0.966648597931931,579.9592936840354,196.91929272056933)" fill="#ffa6d5" filter="url(#bbburst-blur-2)"></use><use xlink:href="#bbburst-shape-8" width="30.483368877320913" opacity="0.2205319953680046" transform="matrix(1.2051069568913384,0.3319897926926332,-0.3319897926926332,1.2051069568913384,816.618925257555,-265.1861884650824)" fill="none" stroke="#ffa6d5" filter="url(#bbburst-blur-3)"></use><use xlink:href="#bbburst-shape-6" width="29.570161018313527" opacity="0.45120721447305834" transform="matrix(0.987582230164108,-0.1571029556185586,0.1571029556185586,0.987582230164108,546.0910265398909,-97.68760169955027)" fill="#ff5c58" filter="url(#bbburst-blur-2)"></use><use xlink:href="#bbburst-shape-10" width="38.735975137422635" opacity="0.03379429712611848" transform="matrix(1.413317489029321,1.032004687588121,-1.032004687588121,1.413317489029321,1049.4658640400028,-530.7551233645438)" fill="none" stroke="#ffa6d5" filter="url(#bbburst-blur-4)"></use><use xlink:href="#bbburst-shape-8" width="42.0347686749448" opacity="0.15934728993094605" transform="matrix(1.2007084581088654,-0.34756179109020463,0.34756179109020463,1.2007084581088654,-18.140424555371055,-353.42659980724216)" fill="none" stroke="#ffbd9b" filter="url(#bbburst-blur-3)"></use><use xlink:href="#bbburst-shape-4" width="36.32121060841656" opacity="0.20420814765272255" transform="matrix(1.2329155642852858,-0.20595924680163094,0.20595924680163094,1.2329155642852858,631.0690801292956,34.92875653359192)" fill="#ffa6d5" filter="url(#bbburst-blur-3)"></use><use xlink:href="#bbburst-shape-10" width="42.70145832554281" opacity="0.2247595058059183" transform="matrix(1.070972146446463,0.6446073700601442,-0.6446073700601442,1.070972146446463,331.8098711911973,130.45135470314779)" fill="none" stroke="#2c2891" filter="url(#bbburst-blur-3)"></use><use xlink:href="#bbburst-shape-6" width="11.189796310680013" opacity="0.8351423838970516" transform="matrix(0.7807072578760155,0.6248969335016077,-0.6248969335016077,0.7807072578760155,716.277326151299,106.73662195598126)" fill="#00a19d"></use><use xlink:href="#bbburst-shape-4" width="9.689854633376127" opacity="0.9060341849725674" transform="matrix(0.894790010160276,0.4464872201053163,-0.4464872201053163,0.894790010160276,608.7363770850745,15.452653172250734)" fill="#ffbd9b"></use><use xlink:href="#bbburst-shape-6" width="10.766802758440452" opacity="0.8166878977289533" transform="matrix(0.7573370423748751,-0.6530241988218175,0.6530241988218175,0.7573370423748751,169.71277049331047,25.883273375716556)" fill="#00a19d"></use><use xlink:href="#bbburst-shape-1" width="25.607429611576258" opacity="0.4649228628989207" transform="matrix(0.9935126547928422,0.11372161081552896,-0.11372161081552896,0.9935126547928422,671.572744921283,-29.614414772673797)" fill="#2c2891" filter="url(#bbburst-blur-2)"></use><use xlink:href="#bbburst-shape-10" width="32.03567273846129" opacity="0.27886195372091105" transform="matrix(1.1448723206941216,-0.5017642567067294,0.5017642567067294,1.1448723206941216,-50.051003697491694,178.00035798407623)" fill="none" stroke="#00a19d" filter="url(#bbburst-blur-3)"></use><use xlink:href="#bbburst-shape-4" width="20.6005866696343" opacity="0.584086718950598" transform="matrix(0.8926437281870151,0.4507628806017487,-0.4507628806017487,0.8926437281870151,748.7679319404868,-20.540581395428035)" fill="#ffa6d5" filter="url(#bbburst-blur-1)"></use><use xlink:href="#bbburst-shape-6" width="30.253060292844367" opacity="0.3802719544840578" transform="matrix(0.9200448417771551,-0.39181307931110426,0.39181307931110426,0.9200448417771551,291.91101102630273,309.68078891825485)" fill="#2c2891" filter="url(#bbburst-blur-2)"></use><use xlink:href="#bbburst-shape-10" width="28.472186306245803" opacity="0.1460053837990627" transform="matrix(1.249629967888228,0.0304128814101228,-0.0304128814101228,1.249629967888228,274.52363155765397,264.84544888408357)" fill="none" stroke="#00a19d" filter="url(#bbburst-blur-3)"></use><use xlink:href="#bbburst-shape-6" width="28.810305809246575" opacity="0.5541642413614447" transform="matrix(0.9969348315530008,-0.07823644698214526,0.07823644698214526,0.9969348315530008,215.96449925059116,-142.9112369413728)" fill="#00a19d" filter="url(#bbburst-blur-2)"></use><use xlink:href="#bbburst-shape-6" width="19.340939540528716" opacity="0.6521232718978904" transform="matrix(0.9976877434906409,-0.06796445018208505,0.06796445018208505,0.9976877434906409,462.15718530513084,122.85464672063176)" fill="#00a19d" filter="url(#bbburst-blur-1)"></use><use xlink:href="#bbburst-shape-8" width="9.19887904721485" opacity="0.9519747661948489" transform="matrix(0.9664762345384763,-0.2567560867288799,0.2567560867288799,0.9664762345384763,312.7518264891528,6.160722041853205)" fill="none" stroke="#ffa6d5"></use><use xlink:href="#bbburst-shape-4" width="10.034248631889904" opacity="0.921938230089387" transform="matrix(0.9849152636369222,-0.17303734699483822,0.17303734699483822,0.9849152636369222,291.68681567241293,15.106535469333608)" fill="#ffa6d5"></use><use xlink:href="#bbburst-shape-6" width="22.198206804139822" opacity="0.5275783952144512" transform="matrix(0.9948637435740745,-0.10122317778936905,0.10122317778936905,0.9948637435740745,141.9761968537939,53.72773434315002)" fill="#ffbd9b" filter="url(#bbburst-blur-2)"></use><use xlink:href="#bbburst-shape-6" width="17.303803451184383" opacity="0.6463893575034263" transform="matrix(0.9975651551442434,-0.0697406713621371,0.0697406713621371,0.9975651551442434,459.07492390854196,-125.62685228017364)" fill="#ff5c58" filter="url(#bbburst-blur-1)"></use><use xlink:href="#bbburst-shape-4" width="25.51610252118381" opacity="0.36102736938731883" transform="matrix(0.8277744002726032,0.5610610860265859,-0.5610610860265859,0.8277744002726032,645.8070940529387,-224.00502361623683)" fill="#00a19d" filter="url(#bbburst-blur-2)"></use><use xlink:href="#bbburst-shape-4" width="37.866657952262344" opacity="0.1521657571015852" transform="matrix(1.2338291190819526,0.2004138341169408,-0.2004138341169408,1.2338291190819526,99.10152634229753,-230.00461872810905)" fill="#ff5c58" filter="url(#bbburst-blur-3)"></use><use xlink:href="#bbburst-shape-1" width="29.654099307174945" opacity="0.5056887588458043" transform="matrix(0.9988307196257223,-0.04834452949364253,0.04834452949364253,0.9988307196257223,584.2175540316193,43.61465062211005)" fill="#2c2891" filter="url(#bbburst-blur-2)"></use><use xlink:href="#bbburst-shape-8" width="40.04428278577672" opacity="0.05277009810429478" transform="matrix(1.6775171099292225,0.49843389320421283,-0.49843389320421283,1.6775171099292225,214.16791979535083,-40.036997718926386)" fill="none" stroke="#ff5c58" filter="url(#bbburst-blur-4)"></use><use xlink:href="#bbburst-shape-10" width="20.335285566707665" opacity="0.5486103203455718" transform="matrix(0.9365179909836675,-0.3506195267863945,0.3506195267863945,0.9365179909836675,344.54345945981083,-150.94464370198878)" fill="none" stroke="#ffa6d5" filter="url(#bbburst-blur-2)"></use><use xlink:href="#bbburst-shape-10" width="24.240448608858784" opacity="0.643120938377707" transform="matrix(0.7706734547384912,-0.6372302771851308,0.6372302771851308,0.7706734547384912,-9.084357360420313,168.80074323065935)" fill="none" stroke="#ffa6d5" filter="url(#bbburst-blur-1)"></use><use xlink:href="#bbburst-shape-1" width="35.47639728676991" opacity="0.3751337638134443" transform="matrix(0.9999833552468712,0.005769681898486165,-0.005769681898486165,0.9999833552468712,196.16571742406097,-208.78819086353886)" fill="#ff5c58" filter="url(#bbburst-blur-2)"></use><use xlink:href="#bbburst-shape-4" width="29.04517061436404" opacity="0.3818360567517617" transform="matrix(0.9176393978518165,-0.3974140605340427,0.3974140605340427,0.9176393978518165,-29.67977397317071,144.22395641891035)" fill="#ffa6d5" filter="url(#bbburst-blur-2)"></use><use xlink:href="#bbburst-shape-6" width="19.782537014073156" opacity="0.6922991400719221" transform="matrix(0.9178802408111231,-0.39685748516125363,0.39685748516125363,0.9178802408111231,97.22587166031431,5.780697587441864)" fill="#00a19d" filter="url(#bbburst-blur-1)"></use><use xlink:href="#bbburst-shape-6" width="12.940796775171293" opacity="0.771726295073814" transform="matrix(0.7585748079083574,0.6515859581105157,-0.6515859581105157,0.7585748079083574,733.9129129837149,158.97891038702863)" fill="#ffa6d5" filter="url(#bbburst-blur-1)"></use><use xlink:href="#bbburst-shape-4" width="34.68775537860843" opacity="0.34758947443959776" transform="matrix(0.8281811918183066,0.5604604477734438,-0.5604604477734438,0.8281811918183066,580.4213689052897,351.143829820319)" fill="#ffa6d5" filter="url(#bbburst-blur-2)"></use><use xlink:href="#bbburst-shape-6" width="15.568922001098297" opacity="0.7277293875643829" transform="matrix(0.9861281871087627,0.16598553729040705,-0.16598553729040705,0.9861281871087627,503.07475294593985,-109.95370344673273)" fill="#ff5c58" filter="url(#bbburst-blur-1)"></use><use xlink:href="#bbburst-shape-10" width="17.002864819550567" opacity="0.7730653724009253" transform="matrix(0.9358699433393082,-0.35234563876125985,0.35234563876125985,0.9358699433393082,265.95786319315124,129.6822201683525)" fill="none" stroke="#ff5c58" filter="url(#bbburst-blur-1)"></use><use xlink:href="#bbburst-shape-10" width="21.96463904562375" opacity="0.6936765131892734" transform="matrix(0.9462166685283699,-0.3235336399805635,0.3235336399805635,0.9462166685283699,377.35310123859256,97.69814279414027)" fill="none" stroke="#00a19d" filter="url(#bbburst-blur-1)"></use><use xlink:href="#bbburst-shape-4" width="17.50833608154095" opacity="0.666031873603065" transform="matrix(0.9021785015850708,0.4313628997465085,-0.4313628997465085,0.9021785015850708,456.006720551212,139.21510041579825)" fill="#ffbd9b" filter="url(#bbburst-blur-1)"></use><use xlink:href="#bbburst-shape-6" width="16.055599856146685" opacity="0.8124627499906572" transform="matrix(0.8839363503742832,0.4676072374193886,-0.4676072374193886,0.8839363503742832,560.0193935438093,-39.33355394816982)" fill="#ffa6d5"></use><use xlink:href="#bbburst-shape-1" width="30.54970566018793" opacity="0.2896992655928675" transform="matrix(1.1507642171687518,-0.4881001090800841,0.4881001090800841,1.1507642171687518,45.5246793328908,-339.32601054339176)" fill="#00a19d" filter="url(#bbburst-blur-3)"></use><use xlink:href="#bbburst-shape-10" width="24.74985186958625" opacity="0.6116678654504886" transform="matrix(0.8870623059901863,0.46164972142455923,-0.46164972142455923,0.8870623059901863,417.713579123865,-39.34808246866271)" fill="none" stroke="#2c2891" filter="url(#bbburst-blur-1)"></use><use xlink:href="#bbburst-shape-4" width="35.44533034172316" opacity="0.3670211492775284" transform="matrix(0.8468700011365279,0.5317999634966302,-0.5317999634966302,0.8468700011365279,313.45371445027274,70.3349667081448)" fill="#ffa6d5" filter="url(#bbburst-blur-2)"></use><use xlink:href="#bbburst-shape-4" width="39.51132161718461" opacity="0.17384065888742717" transform="matrix(1.1645147092743109,-0.4543187117913674,0.4543187117913674,1.1645147092743109,-163.56584068296604,40.379742618343585)" fill="#ffbd9b" filter="url(#bbburst-blur-3)"></use><use xlink:href="#bbburst-shape-4" width="12.604844126464506" opacity="0.7652162809047844" transform="matrix(0.9030815597289196,0.42946908675431084,-0.42946908675431084,0.9030815597289196,666.4012106289499,69.24289417510181)" fill="#ff5c58" filter="url(#bbburst-blur-1)"></use><use xlink:href="#bbburst-shape-1" width="25.86977415663815" opacity="0.5135887074079952" transform="matrix(0.8417405447495132,-0.5398822606131756,0.5398822606131756,0.8417405447495132,329.1879487366936,-83.2144564822436)" fill="#ffa6d5" filter="url(#bbburst-blur-2)"></use><use xlink:href="#bbburst-shape-1" width="22.106036678007662" opacity="0.6654560720310889" transform="matrix(0.9365873412111914,0.350434233891256,-0.350434233891256,0.9365873412111914,568.410514767353,167.0307713930162)" fill="#00a19d" filter="url(#bbburst-blur-1)"></use><use xlink:href="#bbburst-shape-4" width="24.50409995301083" opacity="0.5203679601524437" transform="matrix(0.9273269552433112,-0.3742522118560824,0.3742522118560824,0.9273269552433112,259.86902257587826,-181.14264005116223)" fill="#2c2891" filter="url(#bbburst-blur-2)"></use><use xlink:href="#bbburst-shape-1" width="16.124490415551332" opacity="0.679167292081047" transform="matrix(0.9757483574492856,0.2188952784667164,-0.2188952784667164,0.9757483574492856,381.12474374082745,-97.54064718637454)" fill="#2c2891" filter="url(#bbburst-blur-1)"></use><use xlink:href="#bbburst-shape-4" width="40.99352378097259" opacity="-0.10282952528587774" transform="matrix(1.6060180448540184,-0.6951302321171738,0.6951302321171738,1.6060180448540184,442.85752383036447,-576.1100135632006)" fill="#ff5c58" filter="url(#bbburst-blur-4)"></use><use xlink:href="#bbburst-shape-4" width="29.27021456408565" opacity="0.3660797186948912" transform="matrix(0.8019341214935056,0.5974124745805358,-0.5974124745805358,0.8019341214935056,853.0645661402148,-103.75558471010413)" fill="#ffbd9b" filter="url(#bbburst-blur-2)"></use><use xlink:href="#bbburst-shape-10" width="11.661808379422965" opacity="0.7982824353254515" transform="matrix(0.957218686722556,0.2893654882482453,-0.2893654882482453,0.957218686722556,600.0594915408988,2.82941811698322)" fill="none" stroke="#2c2891"></use><use xlink:href="#bbburst-shape-6" width="30.131432060103386" opacity="0.2754280306066621" transform="matrix(1.01256378186982,-0.7329492394739812,0.7329492394739812,1.01256378186982,213.84225509882606,-296.24397560606997)" fill="#00a19d" filter="url(#bbburst-blur-3)"></use><use xlink:href="#bbburst-shape-10" width="9.726649184239193" opacity="0.8550150591409348" transform="matrix(0.7939913898720866,0.6079290030990396,-0.6079290030990396,0.7939913898720866,646.0793039177199,14.55577158885228)" fill="none" stroke="#ff5c58"></use><use xlink:href="#bbburst-shape-4" width="11.494254269300107" opacity="0.7918171510561662" transform="matrix(0.9799210569449308,-0.19938586247758305,0.19938586247758305,0.9799210569449308,327.3122325114267,-83.6302717457994)" fill="#ffa6d5"></use><use xlink:href="#bbburst-shape-8" width="32.9521105334899" opacity="0.07185265625424375" transform="matrix(1.7409107162316118,0.17812882447806233,-0.17812882447806233,1.7409107162316118,657.5221346456508,58.80690986754678)" fill="none" stroke="#ffa6d5" filter="url(#bbburst-blur-4)"></use><use xlink:href="#bbburst-shape-6" width="27.198387985686065" opacity="0.5225422121400255" transform="matrix(0.9032590776666117,0.42909560544575837,-0.42909560544575837,0.9032590776666117,346.98334852521896,0.27919668579477275)" fill="#00a19d" filter="url(#bbburst-blur-2)"></use><use xlink:href="#bbburst-shape-4" width="33.00135121517774" opacity="0.046972773502875986" transform="matrix(1.7499477132018195,0.013527788426865568,-0.013527788426865568,1.7499477132018195,730.0403063743445,-542.9605120399322)" fill="#ffa6d5" filter="url(#bbburst-blur-4)"></use><use xlink:href="#bbburst-shape-6" width="33.54406430588591" opacity="0.3508173942130496" transform="matrix(0.996389985788267,-0.08489402935929719,0.08489402935929719,0.996389985788267,506.46410070336077,249.14118881094117)" fill="#ffbd9b" filter="url(#bbburst-blur-2)"></use><use xlink:href="#bbburst-shape-4" width="13.456640563088733" opacity="0.7873082134641927" transform="matrix(0.9988676737345943,0.047574892202086744,-0.047574892202086744,0.9988676737345943,494.74280313016965,-48.488981799709336)" fill="#00a19d"></use><use xlink:href="#bbburst-shape-6" width="13.801951501064485" opacity="0.8415701837565122" transform="matrix(0.8191388628062977,-0.5735952609989081,0.5735952609989081,0.8191388628062977,94.81837457129535,89.34292958598792)" fill="#00a19d"></use><use xlink:href="#bbburst-shape-6" width="16.446582862507164" opacity="0.7065583739801031" transform="matrix(0.9262737102898958,0.3768514476896568,-0.3768514476896568,0.9262737102898958,663.8658886980362,-27.06984224611074)" fill="#2c2891" filter="url(#bbburst-blur-1)"></use><use xlink:href="#bbburst-shape-1" width="37.620454641370685" opacity="0.1983298524228535" transform="matrix(1.1358716585605428,-0.5218194853384852,0.5218194853384852,1.1358716585605428,-190.21098324443676,-65.43286900917906)" fill="#ffa6d5" filter="url(#bbburst-blur-3)"></use><use xlink:href="#bbburst-shape-10" width="37.31609042291779" opacity="-0.08443508043501802" transform="matrix(1.5486043627237973,-0.8150610576839147,0.8150610576839147,1.5486043627237973,-293.0581902586085,-556.0884458446749)" fill="none" stroke="#ffa6d5" filter="url(#bbburst-blur-4)"></use><use xlink:href="#bbburst-shape-4" width="30.187316348207112" opacity="0.11503985908334491" transform="matrix(1.1563843936589253,-0.4746315772281482,0.4746315772281482,1.1563843936589253,359.05815349020065,-417.1810414983104)" fill="#00a19d" filter="url(#bbburst-blur-3)"></use><use xlink:href="#bbburst-shape-1" width="18.273685984395907" opacity="0.6026859869741903" transform="matrix(0.94679523326682,0.3218365831648539,-0.3218365831648539,0.94679523326682,667.8342386172388,-82.30378149054746)" fill="#ffa6d5" filter="url(#bbburst-blur-1)"></use><use xlink:href="#bbburst-shape-8" width="34.036710063998484" opacity="0.3137830996581865" transform="matrix(0.9095894429614833,-0.8574071642183885,0.8574071642183885,0.9095894429614833,342.1395884852624,-19.999490874664048)" fill="none" stroke="#ff5c58" filter="url(#bbburst-blur-3)"></use><use xlink:href="#bbburst-shape-10" width="24.072607936856063" opacity="0.43784153399586656" transform="matrix(0.93676294188057,-0.3499645563757277,0.3499645563757277,0.93676294188057,334.0914125213958,-208.6303632074036)" fill="none" stroke="#00a19d" filter="url(#bbburst-blur-2)"></use><use xlink:href="#bbburst-shape-1" width="28.391750156345868" opacity="0.5768536158285382" transform="matrix(0.9116164038527467,-0.41104200786122314,0.41104200786122314,0.9116164038527467,120.37910961379248,201.83770073298075)" fill="#2c2891" filter="url(#bbburst-blur-1)"></use><use xlink:href="#bbburst-shape-4" width="31.306375203159863" opacity="0.48887503832040047" transform="matrix(0.7118795351893978,-0.7023015928919191,0.7023015928919191,0.7118795351893978,44.97547488911175,347.4772465868672)" fill="#00a19d" filter="url(#bbburst-blur-2)"></use><use xlink:href="#bbburst-shape-1" width="34.27734408171061" opacity="0.15245068990715982" transform="matrix(0.9096609577857759,-0.8573312906223971,0.8573312906223971,0.9096609577857759,301.2692576221034,330.1389545165483)" fill="#ff5c58" filter="url(#bbburst-blur-3)"></use><use xlink:href="#bbburst-shape-1" width="8.307992698375427" opacity="0.8993403632898254" transform="matrix(0.9926179839112704,0.12128288426618551,-0.12128288426618551,0.9926179839112704,412.8489228668599,-30.05278169211283)" fill="#ff5c58"></use><use xlink:href="#bbburst-shape-4" width="10.460693902976217" opacity="0.8404909459460168" transform="matrix(0.7736948386713541,0.6335584397775056,-0.6335584397775056,0.7736948386713541,699.1943022819352,35.54519421739229)" fill="#ffa6d5"></use><use xlink:href="#bbburst-shape-4" width="37.47373379192164" opacity="0.19394301718879614" transform="matrix(1.1145876815233875,-0.5658571376207246,0.5658571376207246,1.1145876815233875,164.8715230438295,327.32973183973587)" fill="#ffa6d5" filter="url(#bbburst-blur-3)"></use><use xlink:href="#bbburst-shape-6" width="19.415732760379683" opacity="0.7031824466106091" transform="matrix(0.7440304084187546,-0.6681457560654122,0.6681457560654122,0.7440304084187546,66.51116764832136,228.70109728811383)" fill="#ffa6d5" filter="url(#bbburst-blur-1)"></use><use xlink:href="#bbburst-shape-4" width="20.08351287287731" opacity="0.6438138788847731" transform="matrix(0.8033292714712038,0.5955351220520456,-0.5955351220520456,0.8033292714712038,785.1475699947028,113.4752279001741)" fill="#ffa6d5" filter="url(#bbburst-blur-1)"></use><use xlink:href="#bbburst-shape-4" width="17.612967915999533" opacity="0.596943928499144" transform="matrix(0.7530165124252803,0.6580016200700934,-0.6580016200700934,0.7530165124252803,837.8843204414618,88.77024402534971)" fill="#ffa6d5" filter="url(#bbburst-blur-1)"></use><use xlink:href="#bbburst-shape-1" width="29.295138761636025" opacity="0.18509492625014168" transform="matrix(1.0459621683171143,-0.6844436736864188,0.6844436736864188,1.0459621683171143,476.72065397434943,17.557883847978133)" fill="#ff5c58" filter="url(#bbburst-blur-3)"></use><use xlink:href="#bbburst-shape-10" width="7.864602701583772" opacity="0.9379207763899083" transform="matrix(0.944355688709891,0.32892602998435316,-0.32892602998435316,0.944355688709891,553.1716309291139,32.778097922893096)" fill="none" stroke="#2c2891"></use><use xlink:href="#bbburst-shape-10" width="10.377263340999688" opacity="0.8533847250366982" transform="matrix(0.7459538770528952,-0.6659976075856084,0.6659976075856084,0.7459538770528952,190.50142022395528,79.3867519895291)" fill="none" stroke="#00a19d"></use><use xlink:href="#bbburst-shape-4" width="24.58307084948789" opacity="0.633115805802789" transform="matrix(0.9050531452108895,0.42529848852761815,-0.42529848852761815,0.9050531452108895,488.18275752251037,-116.37389051687236)" fill="#00a19d" filter="url(#bbburst-blur-1)"></use><use xlink:href="#bbburst-shape-4" width="21.908500316612468" opacity="0.5290489323280616" transform="matrix(0.939941329086654,0.34133604830842956,-0.34133604830842956,0.939941329086654,545.9485791990278,231.31182229297167)" fill="#ff5c58" filter="url(#bbburst-blur-2)"></use><use xlink:href="#bbburst-shape-4" width="15.608334100062198" opacity="0.7060546632638445" transform="matrix(0.990955193364638,0.13419316205996815,-0.13419316205996815,0.990955193364638,547.401702787088,-82.2838315733058)" fill="#2c2891" filter="url(#bbburst-blur-1)"></use><use xlink:href="#bbburst-shape-8" width="14.665942725131737" opacity="0.8126753510839297" transform="matrix(0.72183734653843,-0.6920627465355714,0.6920627465355714,0.72183734653843,95.95150895599903,197.73339755091564)" fill="none" stroke="#2c2891"></use><use xlink:href="#bbburst-shape-4" width="22.347006559528374" opacity="0.6350826119372179" transform="matrix(0.9998273649670743,-0.01858064215781571,0.01858064215781571,0.9998273649670743,428.6801296411054,-156.96116419932628)" fill="#ffa6d5" filter="url(#bbburst-blur-1)"></use><use xlink:href="#bbburst-shape-6" width="27.958502477716863" opacity="0.49126092401583066" transform="matrix(0.9958127802331261,-0.09141611851512606,0.09141611851512606,0.9958127802331261,513.2871516004589,162.91596273579142)" fill="#2c2891" filter="url(#bbburst-blur-2)"></use><use xlink:href="#bbburst-shape-10" width="31.071615199394348" opacity="0.391081454300091" transform="matrix(0.995204464583176,0.09781653067715101,-0.09781653067715101,0.995204464583176,581.5918203351375,-223.52672693545009)" fill="none" stroke="#00a19d" filter="url(#bbburst-blur-2)"></use><use xlink:href="#bbburst-shape-1" width="27.32541293285166" opacity="0.2986873752395527" transform="matrix(1.0236854393132924,0.717334037487384,-0.717334037487384,1.0236854393132924,548.0617931046451,270.601448981212)" fill="#2c2891" filter="url(#bbburst-blur-3)"></use><use xlink:href="#bbburst-shape-6" width="30.781352634618873" opacity="0.4142820097959543" transform="matrix(0.7342489140152558,-0.6788803519526968,0.6788803519526968,0.7342489140152558,-31.333192175541228,334.5202623898245)" fill="#ff5c58" filter="url(#bbburst-blur-2)"></use><use xlink:href="#bbburst-shape-4" width="32.00345409106395" opacity="0.28990332323296075" transform="matrix(0.9735145797698551,0.7840722944827999,-0.7840722944827999,0.9735145797698551,659.4772186850895,-319.1336309070295)" fill="#ffbd9b" filter="url(#bbburst-blur-3)"></use><use xlink:href="#bbburst-shape-6" width="10.921427505965486" opacity="0.8836979434322566" transform="matrix(0.9486321103339781,0.3163812877578304,-0.3163812877578304,0.9486321103339781,470.5326431825294,6.394620352104937)" fill="#ffa6d5"></use><use xlink:href="#bbburst-shape-4" width="15.188973011354317" opacity="0.760509815552617" transform="matrix(0.9980472001213152,-0.06246428043292779,0.06246428043292779,0.9980472001213152,433.7364404814517,-83.69353144807025)" fill="#ffa6d5" filter="url(#bbburst-blur-1)"></use><use xlink:href="#bbburst-shape-6" width="16.84408541774719" opacity="0.7504622221949862" transform="matrix(0.7076623989149544,-0.706550726531317,0.706550726531317,0.7076623989149544,0.4416040119355671,140.01223652798114)" fill="#2c2891" filter="url(#bbburst-blur-1)"></use><use xlink:href="#bbburst-shape-10" width="8.588296231358902" opacity="0.900874613222051" transform="matrix(0.7564655088263317,0.6540335877889751,-0.6540335877889751,0.7564655088263317,679.7783627372538,133.7358731938465)" fill="none" stroke="#00a19d"></use><use xlink:href="#bbburst-shape-10" width="11.020965324449103" opacity="0.9423613540426132" transform="matrix(0.7869484513111545,0.6170187476722043,-0.6170187476722043,0.7869484513111545,644.82583823966,55.99026347078967)" fill="none" stroke="#2c2891"></use><use xlink:href="#bbburst-shape-6" width="53.09471839794094" opacity="0.0901829855515276" transform="matrix(1.5885893271313867,-0.7340871540384342,0.7340871540384342,1.5885893271313867,-170.27852614172338,119.68112001107215)" fill="#ffa6d5" filter="url(#bbburst-blur-4)"></use><use xlink:href="#bbburst-shape-10" width="38.076432874665244" opacity="0.22103246466569637" transform="matrix(1.237420052252384,-0.17689435910652238,0.17689435910652238,1.237420052252384,536.7290476823674,-355.2159911554491)" fill="none" stroke="#00a19d" filter="url(#bbburst-blur-3)"></use><use xlink:href="#bbburst-shape-8" width="24.68313437597642" opacity="0.6438919321400289" transform="matrix(0.9115351872797531,-0.4112220839775819,0.4112220839775819,0.9115351872797531,64.35769263240047,50.96936681391685)" fill="none" stroke="#00a19d" filter="url(#bbburst-blur-1)"></use><use xlink:href="#bbburst-shape-6" width="11.709987551660179" opacity="0.8584541580133547" transform="matrix(0.9996175799924993,-0.02765309693215651,0.02765309693215651,0.9996175799924993,330.41949478682875,36.13919538886978)" fill="#ffa6d5"></use><use xlink:href="#bbburst-shape-1" width="25.20416706123931" opacity="0.5750323241657012" transform="matrix(0.8393978486209364,0.5435174806117496,-0.5435174806117496,0.8393978486209364,772.2914265240679,153.26896845492138)" fill="#2c2891" filter="url(#bbburst-blur-1)"></use><use xlink:href="#bbburst-shape-8" width="30.136483464086734" opacity="0.1822316204852834" transform="matrix(1.1466892963632545,0.4975978874612957,-0.4975978874612957,1.1466892963632545,626.2051760652693,-431.47566379074067)" fill="none" stroke="#ffbd9b" filter="url(#bbburst-blur-3)"></use><use xlink:href="#bbburst-shape-1" width="11.085762068982046" opacity="0.8296488529361196" transform="matrix(0.9222730372720378,0.3865390597611195,-0.3865390597611195,0.9222730372720378,485.5296014524697,-13.281823519133923)" fill="#2c2891"></use><use xlink:href="#bbburst-shape-10" width="25.995562979513686" opacity="0.5710514266248896" transform="matrix(0.9556699597903703,0.29444002437554584,-0.29444002437554584,0.9556699597903703,468.04452996911976,-175.48180690747992)" fill="none" stroke="#ffbd9b" filter="url(#bbburst-blur-1)"></use><use xlink:href="#bbburst-shape-1" width="14.627063623444482" opacity="0.7408777134264293" transform="matrix(0.9911796355419901,-0.13252520547747826,0.13252520547747826,0.9911796355419901,240.4909814263912,-56.686033531364956)" fill="#2c2891" filter="url(#bbburst-blur-1)"></use><use xlink:href="#bbburst-shape-6" width="15.026357350696822" opacity="0.7338103300705765" transform="matrix(0.846452933330491,-0.5324635496033576,0.5324635496033576,0.846452933330491,180.44350011735915,-54.365690589875726)" fill="#ffa6d5" filter="url(#bbburst-blur-1)"></use><use xlink:href="#bbburst-shape-1" width="37.10284768575164" opacity="-0.079906067481895" transform="matrix(1.3438702605539532,1.1209427830173357,-1.1209427830173357,1.3438702605539532,1166.5724525231042,185.7889256075198)" fill="#ff5c58" filter="url(#bbburst-blur-4)"></use><use xlink:href="#bbburst-shape-4" width="18.373009604363904" opacity="0.7263864744057171" transform="matrix(0.9917318254058825,-0.12832765281542524,0.12832765281542524,0.9917318254058825,300.66445096194906,-112.31823592107196)" fill="#ffa6d5" filter="url(#bbburst-blur-1)"></use><use xlink:href="#bbburst-shape-8" width="10.444365817434232" opacity="0.8658744350713772" transform="matrix(0.9784138307204091,-0.20665521008436893,0.20665521008436893,0.9784138307204091,281.58998422077866,61.71551254535842)" fill="none" stroke="#ff5c58"></use><use xlink:href="#bbburst-shape-1" width="8.430196708202427" opacity="0.8914887446725724" transform="matrix(0.9921909086633496,0.12472850823206617,-0.12472850823206617,0.9921909086633496,466.4568616777194,-41.59375205922868)" fill="#00a19d"></use><use xlink:href="#bbburst-shape-1" width="12.876587915427985" opacity="0.7283595290778498" transform="matrix(0.8763493002355107,-0.481676140136431,0.481676140136431,0.8763493002355107,323.6925386310418,60.24816868988279)" fill="#2c2891" filter="url(#bbburst-blur-1)"></use><use xlink:href="#bbburst-shape-8" width="20.835292675887295" opacity="0.6503206984915169" transform="matrix(0.7929166951031164,-0.6093300539336227,0.6093300539336227,0.7929166951031164,147.67585005793345,-68.17422653191642)" fill="none" stroke="#ffa6d5" filter="url(#bbburst-blur-1)"></use><use xlink:href="#bbburst-shape-10" width="34.144909107589996" opacity="0.48129348824899876" transform="matrix(0.9123490016262428,-0.4094133598596875,0.4094133598596875,0.9123490016262428,112.40809768117632,-164.74873618906835)" fill="none" stroke="#2c2891" filter="url(#bbburst-blur-2)"></use><use xlink:href="#bbburst-shape-8" width="17.597035778482805" opacity="0.7575989370553371" transform="matrix(0.8889586570731857,-0.4579874518091499,0.4579874518091499,0.8889586570731857,261.29036079223556,144.1673223538578)" fill="none" stroke="#ffbd9b" filter="url(#bbburst-blur-1)"></use><use xlink:href="#bbburst-shape-8" width="34.92693649905759" opacity="0.07699791817301449" transform="matrix(1.7469588910384173,0.10312435707350308,-0.10312435707350308,1.7469588910384173,203.94414430360945,-660.7942976815291)" fill="none" stroke="#ff5c58" filter="url(#bbburst-blur-4)"></use><use xlink:href="#bbburst-shape-10" width="18.53229856763966" opacity="0.7709847005710412" transform="matrix(0.9830080488233979,-0.18356245789489783,0.18356245789489783,0.9830080488233979,256.67670749941385,-74.72095944200402)" fill="none" stroke="#ff5c58" filter="url(#bbburst-blur-1)"></use><use xlink:href="#bbburst-shape-6" width="10.057710590292896" opacity="0.8846906854536619" transform="matrix(0.7905469030783151,0.6124014974126737,-0.6124014974126737,0.7905469030783151,692.8657506934567,79.76674411367065)" fill="#00a19d"></use><use xlink:href="#bbburst-shape-8" width="32.096907027792035" opacity="0.1615979114405829" transform="matrix(1.0611885909269052,-0.6605897172122568,0.6605897172122568,1.0611885909269052,29.27704691052662,-380.39605182358645)" fill="none" stroke="#2c2891" filter="url(#bbburst-blur-3)"></use><use xlink:href="#bbburst-shape-1" width="16.456179973734073" opacity="0.7654652547564738" transform="matrix(0.7781045317034989,0.6281348085741457,-0.6281348085741457,0.7781045317034989,553.3054456351997,136.14742463843538)" fill="#2c2891" filter="url(#bbburst-blur-1)"></use><use xlink:href="#bbburst-shape-4" width="31.031481822414023" opacity="0.15167259713862313" transform="matrix(1.1775370288416396,0.41941214301305574,-0.41941214301305574,1.1775370288416396,916.4498703692248,-182.68450097496685)" fill="#2c2891" filter="url(#bbburst-blur-3)"></use><use xlink:href="#bbburst-shape-10" width="45.16969882803984" opacity="0.04271464590846252" transform="matrix(1.7498974744871951,-0.018942776547699845,0.018942776547699845,1.7498974744871951,-1.3735276711128321,-544.6007314683462)" fill="none" stroke="#00a19d" filter="url(#bbburst-blur-4)"></use><use xlink:href="#bbburst-shape-6" width="11.63128247610435" opacity="0.8438454582639442" transform="matrix(0.9031717496343046,0.42927938532208737,-0.42927938532208737,0.9031717496343046,527.409064804759,-22.185132682590165)" fill="#ffa6d5"></use><use xlink:href="#bbburst-shape-1" width="9.479519842576467" opacity="0.9931102738469633" transform="matrix(0.9290068489571336,-0.3700625279472883,0.3700625279472883,0.9290068489571336,244.4950216875417,30.50673332730429)" fill="#2c2891"></use><use xlink:href="#bbburst-shape-10" width="33.63179252625539" opacity="0.3065232779692141" transform="matrix(1.14082016691471,0.5109103118559002,-0.5109103118559002,1.14082016691471,830.2644398458181,128.2591541675895)" fill="none" stroke="#2c2891" filter="url(#bbburst-blur-3)"></use><use xlink:href="#bbburst-shape-10" width="9.329479765782775" opacity="0.9267409201429662" transform="matrix(0.9194376923733286,0.393235717913834,-0.393235717913834,0.9194376923733286,532.3399363480189,56.07591674839591)" fill="none" stroke="#ffbd9b"></use><use xlink:href="#bbburst-shape-10" width="9.92248478065231" opacity="0.8444241342944587" transform="matrix(0.9018351975615062,0.4320801736242928,-0.4320801736242928,0.9018351975615062,583.9320866820281,105.37710437647684)" fill="none" stroke="#ffbd9b"></use><use xlink:href="#bbburst-shape-10" width="34.295922569748754" opacity="0.462826162220763" transform="matrix(0.8742480415484918,0.48547951743469736,-0.48547951743469736,0.8742480415484918,370.6691892910944,-80.28348673841896)" fill="none" stroke="#2c2891" filter="url(#bbburst-blur-2)"></use><use xlink:href="#bbburst-shape-10" width="45.62748460977988" opacity="-0.08442896290457491" transform="matrix(1.4369517037588049,0.9988342210120094,-0.9988342210120094,1.4369517037588049,424.47678251337595,150.26152673582703)" fill="none" stroke="#ff5c58" filter="url(#bbburst-blur-4)"></use><use xlink:href="#bbburst-shape-10" width="14.508355592467192" opacity="0.7291577122121431" transform="matrix(0.906134173407248,0.4229903778853172,-0.4229903778853172,0.906134173407248,548.6194351319632,155.5497598844869)" fill="none" stroke="#00a19d" filter="url(#bbburst-blur-1)"></use><use xlink:href="#bbburst-shape-1" width="34.581961977903156" opacity="0.26799769239400906" transform="matrix(1.0214621945988218,0.720496346281755,-0.720496346281755,1.0214621945988218,395.9498218480669,-202.99984544129856)" fill="#ffa6d5" filter="url(#bbburst-blur-3)"></use><use xlink:href="#bbburst-shape-10" width="35.38040430233197" opacity="0.19314232216482774" transform="matrix(1.1511755685054919,0.48712915174115534,-0.48712915174115534,1.1511755685054919,692.8122985141094,274.17693084133214)" fill="none" stroke="#ffbd9b" filter="url(#bbburst-blur-3)"></use><use xlink:href="#bbburst-shape-6" width="21.06599693498334" opacity="0.6252166579446425" transform="matrix(0.8309445779708493,0.5563551997967191,-0.5563551997967191,0.8309445779708493,587.556040950692,228.36200375859198)" fill="#ff5c58" filter="url(#bbburst-blur-1)"></use><use xlink:href="#bbburst-shape-10" width="13.753765860959984" opacity="0.6878337603892837" transform="matrix(0.7129378056432578,0.7012272707792933,-0.7012272707792933,0.7129378056432578,814.0818360464534,86.49391960403386)" fill="none" stroke="#ffa6d5" filter="url(#bbburst-blur-1)"></use><use xlink:href="#bbburst-shape-4" width="20.616569890735718" opacity="0.43436597863054127" transform="matrix(0.9970849158933562,0.07629987220132561,-0.07629987220132561,0.9970849158933562,368.10195520773345,-248.73999851148184)" fill="#00a19d" filter="url(#bbburst-blur-2)"></use></svg>