<svg xmlns="http://www.w3.org/2000/svg" version="1.1" xmlns:xlink="http://www.w3.org/1999/xlink" xmlns:svgjs="http://svgjs.dev/svgjs" viewBox="0 0 800 800"><defs><linearGradient x1="50%" y1="0%" x2="50%" y2="100%" id="ffflurry-grad" gradientTransform="rotate(270)"><stop stop-color="hsl(238, 82%, 13%)" stop-opacity="1" offset="0%"></stop><stop stop-color="hsl(1.4, 100%, 67%)" stop-opacity="1" offset="45%"></stop><stop stop-color="hsl(167, 52%, 78%)" stop-opacity="1" offset="100%"></stop></linearGradient></defs><rect width="100%" height="100%" fill="hsl(238, 82%, 13%)"></rect><g fill="url(#ffflurry-grad)"><rect width="306" height="3" x="333" y="82.5" rx="1.5" transform="rotate(45, 486, 84)" opacity="0.14"></rect><rect width="246" height="3" x="-48" y="86.5" rx="1.5" transform="rotate(45, 75, 88)" opacity="0.80"></rect><rect width="100" height="3" x="714" y="655.5" rx="1.5" transform="rotate(45, 764, 657)" opacity="0.69"></rect><rect width="124" height="3" x="587" y="225.5" rx="1.5" transform="rotate(45, 649, 227)" opacity="0.72"></rect><rect width="152" height="3" x="285" y="185.5" rx="1.5" transform="rotate(45, 361, 187)" opacity="0.90"></rect><rect width="428" height="3" x="322" y="211.5" rx="1.5" transform="rotate(45, 536, 213)" opacity="0.85"></rect><rect width="443" height="3" x="18.5" y="512.5" rx="1.5" transform="rotate(45, 240, 514)" opacity="0.32"></rect><rect width="369" height="3" x="590.5" y="317.5" rx="1.5" transform="rotate(45, 775, 319)" opacity="0.27"></rect><rect width="531" height="3" x="-135.5" y="355.5" rx="1.5" transform="rotate(45, 130, 357)" opacity="0.78"></rect><rect width="72" height="3" x="143" y="716.5" rx="1.5" transform="rotate(45, 179, 718)" opacity="0.99"></rect><rect width="55" height="3" x="358.5" y="298.5" rx="1.5" transform="rotate(45, 386, 300)" opacity="0.91"></rect><rect width="67" height="3" x="742.5" y="218.5" rx="1.5" transform="rotate(45, 776, 220)" opacity="0.97"></rect><rect width="402" height="3" x="-100" y="235.5" rx="1.5" transform="rotate(45, 101, 237)" opacity="0.18"></rect><rect width="80" height="3" x="2" y="522.5" rx="1.5" transform="rotate(45, 42, 524)" opacity="0.52"></rect><rect width="422" height="3" x="459" y="100.5" rx="1.5" transform="rotate(45, 670, 102)" opacity="0.98"></rect><rect width="456" height="3" x="102" y="544.5" rx="1.5" transform="rotate(45, 330, 546)" opacity="0.88"></rect><rect width="493" height="3" x="-100.5" y="568.5" rx="1.5" transform="rotate(45, 146, 570)" opacity="0.11"></rect><rect width="410" height="3" x="198" y="405.5" rx="1.5" transform="rotate(45, 403, 407)" opacity="0.89"></rect><rect width="132" height="3" x="521" y="264.5" rx="1.5" transform="rotate(45, 587, 266)" opacity="0.28"></rect><rect width="481" height="3" x="295.5" y="502.5" rx="1.5" transform="rotate(45, 536, 504)" opacity="0.92"></rect><rect width="565" height="3" x="30.5" y="255.5" rx="1.5" transform="rotate(45, 313, 257)" opacity="0.85"></rect><rect width="211" height="3" x="632.5" y="371.5" rx="1.5" transform="rotate(45, 738, 373)" opacity="0.61"></rect><rect width="521" height="3" x="70.5" y="117.5" rx="1.5" transform="rotate(45, 331, 119)" opacity="0.07"></rect><rect width="66" height="3" x="175" y="145.5" rx="1.5" transform="rotate(45, 208, 147)" opacity="0.49"></rect><rect width="365" height="3" x="400.5" y="344.5" rx="1.5" transform="rotate(45, 583, 346)" opacity="0.18"></rect><rect width="215" height="3" x="-70.5" y="334.5" rx="1.5" transform="rotate(45, 37, 336)" opacity="0.36"></rect><rect width="138" height="3" x="564" y="755.5" rx="1.5" transform="rotate(45, 633, 757)" opacity="0.24"></rect><rect width="99" height="3" x="527.5" y="665.5" rx="1.5" transform="rotate(45, 577, 667)" opacity="0.10"></rect><rect width="413" height="3" x="143.5" y="38.5" rx="1.5" transform="rotate(45, 350, 40)" opacity="0.74"></rect><rect width="466" height="3" x="-104" y="166.5" rx="1.5" transform="rotate(45, 129, 168)" opacity="0.72"></rect><rect width="606" height="3" x="252" y="755.5" rx="1.5" transform="rotate(45, 555, 757)" opacity="0.22"></rect><rect width="129" height="3" x="685.5" y="40.5" rx="1.5" transform="rotate(45, 750, 42)" opacity="0.48"></rect><rect width="95" height="3" x="446.5" y="20.5" rx="1.5" transform="rotate(45, 494, 22)" opacity="0.33"></rect><rect width="109" height="3" x="658.5" y="676.5" rx="1.5" transform="rotate(45, 713, 678)" opacity="0.30"></rect><rect width="106" height="3" x="232" y="392.5" rx="1.5" transform="rotate(45, 285, 394)" opacity="0.14"></rect><rect width="151" height="3" x="18.5" y="26.5" rx="1.5" transform="rotate(45, 94, 28)" opacity="0.89"></rect><rect width="63" height="3" x="678.5" y="177.5" rx="1.5" transform="rotate(45, 710, 179)" opacity="0.34"></rect><rect width="357" height="3" x="-118.5" y="707.5" rx="1.5" transform="rotate(45, 60, 709)" opacity="0.75"></rect><rect width="266" height="3" x="429" y="49.5" rx="1.5" transform="rotate(45, 562, 51)" opacity="0.71"></rect><rect width="302" height="3" x="365" y="388.5" rx="1.5" transform="rotate(45, 516, 390)" opacity="0.50"></rect><rect width="442" height="3" x="470" y="414.5" rx="1.5" transform="rotate(45, 691, 416)" opacity="0.13"></rect><rect width="353" height="3" x="175.5" y="445.5" rx="1.5" transform="rotate(45, 352, 447)" opacity="0.36"></rect><rect width="513" height="3" x="26.5" y="178.5" rx="1.5" transform="rotate(45, 283, 180)" opacity="0.62"></rect><rect width="113" height="3" x="155.5" y="381.5" rx="1.5" transform="rotate(45, 212, 383)" opacity="0.34"></rect><rect width="642" height="3" x="147" y="737.5" rx="1.5" transform="rotate(45, 468, 739)" opacity="0.84"></rect><rect width="97" height="3" x="425.5" y="269.5" rx="1.5" transform="rotate(45, 474, 271)" opacity="0.66"></rect><rect width="414" height="3" x="550" y="527.5" rx="1.5" transform="rotate(45, 757, 529)" opacity="0.56"></rect><rect width="230" height="3" x="304" y="192.5" rx="1.5" transform="rotate(45, 419, 194)" opacity="0.30"></rect><rect width="323" height="3" x="254.5" y="27.5" rx="1.5" transform="rotate(45, 416, 29)" opacity="0.78"></rect><rect width="55" height="3" x="385.5" y="100.5" rx="1.5" transform="rotate(45, 413, 102)" opacity="0.23"></rect><rect width="398" height="3" x="463" y="669.5" rx="1.5" transform="rotate(45, 662, 671)" opacity="0.78"></rect><rect width="395" height="3" x="510.5" y="763.5" rx="1.5" transform="rotate(45, 708, 765)" opacity="0.94"></rect><rect width="140" height="3" x="702" y="749.5" rx="1.5" transform="rotate(45, 772, 751)" opacity="0.87"></rect><rect width="89" height="3" x="671.5" y="270.5" rx="1.5" transform="rotate(45, 716, 272)" opacity="0.48"></rect><rect width="497" height="3" x="423.5" y="564.5" rx="1.5" transform="rotate(45, 672, 566)" opacity="0.79"></rect><rect width="462" height="3" x="239" y="596.5" rx="1.5" transform="rotate(45, 470, 598)" opacity="0.50"></rect><rect width="255" height="3" x="242.5" y="613.5" rx="1.5" transform="rotate(45, 370, 615)" opacity="0.76"></rect><rect width="261" height="3" x="265.5" y="696.5" rx="1.5" transform="rotate(45, 396, 698)" opacity="0.54"></rect><rect width="276" height="3" x="625" y="128.5" rx="1.5" transform="rotate(45, 763, 130)" opacity="0.81"></rect><rect width="249" height="3" x="160.5" y="457.5" rx="1.5" transform="rotate(45, 285, 459)" opacity="0.69"></rect><rect width="239" height="3" x="-85.5" y="173.5" rx="1.5" transform="rotate(45, 34, 175)" opacity="0.21"></rect><rect width="114" height="3" x="245" y="746.5" rx="1.5" transform="rotate(45, 302, 748)" opacity="0.32"></rect><rect width="358" height="3" x="439" y="454.5" rx="1.5" transform="rotate(45, 618, 456)" opacity="0.33"></rect><rect width="255" height="3" x="349.5" y="454.5" rx="1.5" transform="rotate(45, 477, 456)" opacity="0.39"></rect><rect width="46" height="3" x="116" y="289.5" rx="1.5" transform="rotate(45, 139, 291)" opacity="1.00"></rect><rect width="85" height="3" x="532.5" y="576.5" rx="1.5" transform="rotate(45, 575, 578)" opacity="0.31"></rect><rect width="523" height="3" x="-140.5" y="442.5" rx="1.5" transform="rotate(45, 121, 444)" opacity="0.45"></rect><rect width="94" height="3" x="363" y="511.5" rx="1.5" transform="rotate(45, 410, 513)" opacity="0.96"></rect><rect width="239" height="3" x="92.5" y="58.5" rx="1.5" transform="rotate(45, 212, 60)" opacity="0.77"></rect><rect width="215" height="3" x="378.5" y="163.5" rx="1.5" transform="rotate(45, 486, 165)" opacity="0.65"></rect><rect width="189" height="3" x="170.5" y="624.5" rx="1.5" transform="rotate(45, 265, 626)" opacity="0.58"></rect><rect width="615" height="3" x="271.5" y="134.5" rx="1.5" transform="rotate(45, 579, 136)" opacity="0.28"></rect><rect width="231" height="3" x="335.5" y="345.5" rx="1.5" transform="rotate(45, 451, 347)" opacity="0.37"></rect><rect width="304" height="3" x="65" y="250.5" rx="1.5" transform="rotate(45, 217, 252)" opacity="0.39"></rect><rect width="427" height="3" x="90.5" y="331.5" rx="1.5" transform="rotate(45, 304, 333)" opacity="0.49"></rect><rect width="144" height="3" x="212" y="45.5" rx="1.5" transform="rotate(45, 284, 47)" opacity="0.44"></rect><rect width="354" height="3" x="460" y="29.5" rx="1.5" transform="rotate(45, 637, 31)" opacity="0.27"></rect></g></svg>