<svg xmlns="http://www.w3.org/2000/svg" version="1.1" xmlns:xlink="http://www.w3.org/1999/xlink" xmlns:svgjs="http://svgjs.dev/svgjs" viewBox="0 0 800 800"><defs><filter id="llleaves-blur-2" x="-100%" y="-100%" width="400%" height="400%"><feGaussianBlur in="SourceGraphic" stdDeviation="2"></feGaussianBlur></filter><filter id="llleaves-blur-3" x="-100%" y="-100%" width="400%" height="400%"><feGaussianBlur in="SourceGraphic" stdDeviation="4"></feGaussianBlur></filter><filter id="llleaves-blur-4" x="-100%" y="-100%" width="400%" height="400%"><feGaussianBlur in="SourceGraphic" stdDeviation="12"></feGaussianBlur></filter></defs><g fill="hsl(305, 77%, 40%)"><path d="M474 639H524C552 639 574 661 574 689H524C496 689 474 667 474 639Z " transform="matrix(-0.035283102075927504,-0.504571867289337,0.504571867289337,-0.035283102075927504,207.45262560766622,951.8236382380284)" opacity="0.78"></path><path d="M582 627H632C660 627 682 649 682 677H632C604 677 582 655 582 627Z " transform="matrix(-0.2742142691012195,-0.36389462582519894,0.36389462582519894,-0.2742142691012195,568.044122033941,1060.7691069755208)" opacity="0.70"></path><path d="M480 371H530C558 371 580 393 580 421H530C502 421 480 399 480 371Z " transform="matrix(-0.035283102075927504,-0.504571867289337,0.504571867289337,-0.035283102075927504,348.88958465366414,677.3951980854159)" opacity="0.78"></path><path d="M319 471H369C397 471 419 493 419 521H369C341 521 319 499 319 471Z " transform="matrix(0.1387636972240437,-0.5178731682862346,0.5178731682862346,0.1387636972240437,60.93110425435543,618.2684052744949)" opacity="0.82"></path><path d="M263 650H313C341 650 363 672 363 700H313C285 700 263 678 263 650Z " transform="matrix(0.10086869797219121,-0.5189244652385342,0.5189244652385342,0.10086869797219121,-68.84591650130648,769.3369864884321)" opacity="0.81"></path><path d="M598 382H648C676 382 698 404 698 432H648C620 432 598 410 598 382Z " transform="matrix(-0.3098246072900867,-0.3208327728071432,0.3208327728071432,-0.3098246072900867,718.187406991469,740.9982519460939)" opacity="0.68"></path><path d="M-10 716H40C68 716 90 738 90 766H40C12 766 -10 744 -10 716Z " transform="matrix(-0.3843643691658147,-0.10299012231727778,0.10299012231727778,-0.3843643691658147,-20.941105870470253,1029.9336024445597)" filter="url(#llleaves-blur-2)" opacity="0.61"></path><path d="M75 117H125C153 117 175 139 175 167H125C97 167 75 145 75 117Z " transform="matrix(-0.2745137983580629,-0.3642921145744168,0.3642921145744168,-0.2745137983580629,107.58474452519069,226.517473688647)" opacity="0.70"></path><path d="M693 627H743C771 627 793 649 793 677H743C715 677 693 655 693 627Z " transform="matrix(-0.38402228985461856,-0.053970813160491835,0.053970813160491835,-0.38402228985461856,993.1395911813408,942.4828471634569)" filter="url(#llleaves-blur-2)" opacity="0.59"></path><path d="M428 730H478C506 730 528 752 528 780H478C450 780 428 758 428 730Z " transform="matrix(0.06373710574504671,-0.5190970695041092,0.5190970695041092,0.06373710574504671,55.615375978265206,955.0068843854539)" opacity="0.80"></path><path d="M104 225H154C182 225 204 247 204 275H154C126 275 104 253 104 225Z " transform="matrix(-0.21381439209697037,-0.4196343721577113,0.4196343721577113,-0.21381439209697037,82.0188233435056,368.07729133653015)" opacity="0.72"></path><path d="M-4 387H46C74 387 96 409 96 437H46C18 437 -4 415 -4 387Z " transform="matrix(-0.3843643691658147,-0.10299012231727778,0.10299012231727778,-0.3843643691658147,21.248830586909033,575.0956657229104)" filter="url(#llleaves-blur-2)" opacity="0.61"></path><path d="M92 338H142C170 338 192 360 192 388H142C114 388 92 366 92 338Z " transform="matrix(-0.2514382998307627,-0.3871810284704978,0.3871810284704978,-0.2514382998307627,37.15752524117762,509.25180888137754)" opacity="0.71"></path><path d="M343 24H393C421 24 443 46 443 74H393C365 74 343 52 343 24Z " transform="matrix(0.204422551439645,-0.5059635696100819,0.5059635696100819,0.204422551439645,287.86972237332554,237.82697783621956)" opacity="0.84"></path><path d="M266 389H316C344 389 366 411 366 439H316C288 439 266 417 266 389Z " transform="matrix(0.10086869797219121,-0.5189244652385342,0.5189244652385342,0.10086869797219121,69.2907628320344,536.2204900548896)" opacity="0.81"></path><path d="M188 311H238C266 311 288 333 288 361H238C210 361 188 339 188 311Z " transform="matrix(-0.017776489672032107,-0.5090520607294349,0.5090520607294349,-0.017776489672032107,71.18931213685352,463.1272909834083)" opacity="0.78"></path><path d="M570 16H620C648 16 670 38 670 66H620C592 66 570 44 570 16Z " transform="matrix(-0.3504173045009183,-0.24536483813067006,0.24536483813067006,-0.3504173045009183,827.1987704272119,207.49330912555308)" opacity="0.66"></path><path d="M115 21H165C193 21 215 43 215 71H165C137 71 115 49 115 21Z " transform="matrix(-0.16488816249928387,-0.45302650320214594,0.45302650320214594,-0.16488816249928387,171.36732766508314,128.33422850332113)" opacity="0.74"></path><path d="M297 292H347C375 292 397 314 397 342H347C319 342 297 320 297 292Z " transform="matrix(0.1291753101722501,-0.5180938711224401,0.5180938711224401,0.1291753101722501,137.9404102244157,455.8299999548835)" opacity="0.82"></path><path d="M371 642H421C449 642 471 664 471 692H421C393 692 371 670 371 642Z " transform="matrix(0.12901071467522857,-0.5174337146412403,0.5174337146412403,0.12901071467522857,21.558201456021493,798.7894471755848)" opacity="0.82"></path><path d="M1 276H51C79 276 101 298 101 326H51C23 326 1 304 1 276Z " transform="matrix(-0.37942504312231917,-0.15329766816005222,0.15329766816005222,-0.37942504312231917,24.208079083062554,423.0251190559807)" opacity="0.63"></path><path d="M694 22H744C772 22 794 44 794 72H744C716 72 694 50 694 22Z " transform="matrix(-0.32390717774848754,0.1178925713656215,-0.1178925713656215,-0.32390717774848754,990.5278910990589,-25.48843574184349)" filter="url(#llleaves-blur-2)" opacity="0.53"></path><path d="M543 458H593C621 458 643 480 643 508H593C565 508 543 486 543 458Z " transform="matrix(-0.20037229473221577,-0.4296997727316171,0.4296997727316171,-0.20037229473221577,504.27578054683295,834.5917835855092)" opacity="0.73"></path><path d="M371 374H421C449 374 471 396 471 424H421C393 424 371 402 371 374Z " transform="matrix(0.12901071467522857,-0.5174337146412403,0.5174337146412403,0.12901071467522857,160.2304369798739,565.364318708546)" opacity="0.82"></path><path d="M708 725H758C786 725 808 747 808 775H758C730 775 708 753 708 725Z " transform="matrix(-0.3785517332773554,-0.01321931781848007,0.01321931781848007,-0.3785517332773554,1035.0277254603752,1043.9340428644246)" filter="url(#llleaves-blur-2)" opacity="0.58"></path><path d="M621 286H671C699 286 721 308 721 336H671C643 336 621 314 621 286Z " transform="matrix(-0.3534611541322208,-0.23841255883513648,0.23841255883513648,-0.3534611541322208,834.0261286249926,580.9012459134972)" opacity="0.65"></path><path d="M1 33H51C79 33 101 55 101 83H51C23 83 1 61 1 33Z " transform="matrix(-0.37429380719850147,-0.1745360686966517,0.1745360686966517,-0.37429380719850147,59.96589218271779,88.61038032104234)" opacity="0.63"></path><path d="M220 211H270C298 211 320 233 320 261H270C242 261 220 239 220 211Z " transform="matrix(0.04535382380092869,-0.5183965781748389,0.5183965781748389,0.04535382380092869,135.41287512448727,365.2635736901873)" opacity="0.80"></path><path d="M-5 163H45C73 163 95 185 95 213H45C17 213 -5 191 -5 163Z " transform="matrix(-0.3843643691658147,-0.10299012231727778,0.10299012231727778,-0.3843643691658147,42.934253616813436,264.8950569074507)" filter="url(#llleaves-blur-2)" opacity="0.61"></path><path d="M411 277H461C489 277 511 299 511 327H461C433 327 411 305 411 277Z " transform="matrix(0.09155201810677417,-0.5192172958382609,0.5192172958382609,0.09155201810677417,261.9908963096223,513.7104639131925)" opacity="0.81"></path><path d="M702 228H752C780 228 802 250 802 278H752C724 278 702 256 702 228Z " transform="matrix(-0.3785517332773554,-0.01321931781848007,0.01321931781848007,-0.3785517332773554,1033.3264160164958,358.7145155186679)" filter="url(#llleaves-blur-2)" opacity="0.58"></path><path d="M239 735H289C317 735 339 757 339 785H289C261 785 239 763 239 735Z " transform="matrix(0.0730467146640999,-0.519754381840575,0.519754381840575,0.0730467146640999,-127.12383073676187,854.6935132072102)" opacity="0.81"></path><path d="M-2 499H48C76 499 98 521 98 549H48C20 549 -2 527 -2 499Z " transform="matrix(-0.3843643691658147,-0.10299012231727778,0.10299012231727778,-0.3843643691658147,12.48266562570555,730.3504553141163)" filter="url(#llleaves-blur-2)" opacity="0.61"></path><path d="M399 550H449C477 550 499 572 499 600H449C421 600 399 578 399 550Z " transform="matrix(0.11033030547493422,-0.5190632771253331,0.5190632771253331,0.11033030547493422,101.00030849468806,744.6194857811874)" opacity="0.82"></path><path d="M157 716H207C235 716 257 738 257 766H207C179 766 157 744 157 716Z " transform="matrix(-0.09459575249154105,-0.4866529583740893,0.4866529583740893,-0.09459575249154105,-134.02852138945116,911.8326149796685)" opacity="0.76"></path></g><g fill="none" stroke-width="3" stroke="hsl(305, 77%, 40%)"><path d="M590 191H640C668 191 690 213 690 241H640C612 241 590 219 590 191Z " transform="matrix(-0.3098246072900867,-0.3208327728071432,0.3208327728071432,-0.3098246072900867,768.9878697393126,488.25508977123036)" opacity="0.68"></path><path d="M691 437H741C769 437 791 459 791 487H741C713 487 691 465 691 437Z " transform="matrix(-0.38402228985461856,-0.053970813160491835,0.053970813160491835,-0.38402228985461856,1000.6260011021252,679.4106704647583)" filter="url(#llleaves-blur-2)" opacity="0.59"></path><path d="M474 198H524C552 198 574 220 574 248H524C496 248 474 226 474 198Z " transform="matrix(-0.035283102075927504,-0.504571867289337,0.504571867289337,-0.035283102075927504,429.96881908226385,495.2637902225444)" opacity="0.78"></path><path d="M337 201H387C415 201 437 223 437 251H387C359 251 337 229 337 201Z " transform="matrix(0.1387309741573752,-0.5177510441388483,0.5177510441388483,0.1387309741573752,216.29937702571607,395.01645392216756)" opacity="0.82"></path><path d="M432 461H482C510 461 532 483 532 511H482C454 511 432 489 432 461Z " transform="matrix(0.06373710574504671,-0.5190970695041092,0.5190970695041092,0.06373710574504671,198.99753925189043,705.2285541088879)" opacity="0.80"></path><path d="M229 22H279C307 22 329 44 329 72H279C251 72 229 50 229 22Z " transform="matrix(0.13870898435446927,-0.5176689770771551,0.5176689770771551,0.13870898435446927,215.9697514424768,184.9103223398662)" opacity="0.82"></path><path d="M400 121H450C478 121 500 143 500 171H450C422 171 400 149 400 121Z " transform="matrix(0.1010353207436608,-0.5197816650866501,0.5197816650866501,0.1010353207436608,328.6459825627017,365.15059246041807)" opacity="0.81"></path><path d="M512 107H562C590 107 612 129 612 157H562C534 157 512 135 512 107Z " transform="matrix(-0.15009858521561856,-0.46195594467140594,0.46195594467140594,-0.15009858521561856,585.377220194552,411.4322541537918)" opacity="0.75"></path><path d="M705 338H755C783 338 805 360 805 388H755C727 388 705 366 705 338Z " transform="matrix(-0.3785517332773554,-0.01321931781848007,0.01321931781848007,-0.3785517332773554,1036.007946256295,510.3948641326325)" filter="url(#llleaves-blur-2)" opacity="0.58"></path><path d="M614 527H664C692 527 714 549 714 577H664C636 577 614 555 614 527Z " transform="matrix(-0.3341621013076802,-0.28039529596069934,0.28039529596069934,-0.3341621013076802,731.1054318979936,922.6399564397439)" opacity="0.67"></path><path d="M84 443H134C162 443 184 465 184 493H134C106 493 84 471 84 443Z " transform="matrix(-0.2514382998307627,-0.3871810284704978,0.3871810284704978,-0.2514382998307627,-13.507989146870756,637.5553821358436)" opacity="0.71"></path><path d="M616 96H666C694 96 716 118 716 146H666C638 146 616 124 616 96Z " transform="matrix(-0.36252245916560655,-0.2178254692256398,0.2178254692256398,-0.36252245916560655,881.0830760279914,309.93698006331454)" opacity="0.65"></path><path d="M332 729H382C410 729 432 751 432 779H382C354 779 332 757 332 729Z " transform="matrix(0.1387636972240437,-0.5178731682862346,0.5178731682862346,0.1387636972240437,-61.48410122740563,847.1997225784127)" opacity="0.82"></path><path d="M527 727H577C605 727 627 749 627 777H577C549 777 527 755 527 727Z " transform="matrix(-0.15718637189327525,-0.45650237107484726,0.45650237107484726,-0.15718637189327525,324.4067535341347,1133.6060197739298)" opacity="0.74"></path><path d="M283 115H333C361 115 383 137 383 165H333C305 165 283 143 283 115Z " transform="matrix(0.16704397890661377,-0.5141085038651358,0.5141085038651358,0.16704397890661377,205.39916448297862,287.81197474016426)" opacity="0.83"></path><path d="M296 566H346C374 566 396 588 396 616H346C318 616 296 594 296 566Z " transform="matrix(0.1291753101722501,-0.5180938711224401,0.5180938711224401,0.1291753101722501,-4.888135152960615,693.9178710965646)" opacity="0.82"></path><path d="M174 119H224C252 119 274 141 274 169H224C196 169 174 147 174 119Z " transform="matrix(-0.01778334482280225,-0.5092483665631812,0.5092483665631812,-0.01778334482280225,154.6517044552096,260.6324357646361)" opacity="0.78"></path><path d="M177 610H227C255 610 277 632 277 660H227C199 660 177 638 177 610Z " transform="matrix(-0.05256462832307125,-0.5001190312664514,0.5001190312664514,-0.05256462832307125,-78.6434142248595,781.9055590826347)" opacity="0.77"></path><path d="M620 723H670C698 723 720 745 720 773H670C642 773 620 751 620 723Z " transform="matrix(-0.3534611541322208,-0.23841255883513648,0.23841255883513648,-0.3534611541322208,728.4863792599058,1172.1253577104426)" opacity="0.65"></path><path d="M453 22H503C531 22 553 44 553 72H503C475 72 453 50 453 22Z " transform="matrix(-0.04401225960250423,-0.5030624292193331,0.5030624292193331,-0.04401225960250423,501.494232406751,302.1089780986423)" opacity="0.78"></path><path d="M708 532H758C786 532 808 554 808 582H758C730 582 708 560 708 532Z " transform="matrix(-0.3785517332773554,-0.01321931781848007,0.01321931781848007,-0.3785517332773554,1037.579053799342,777.873558341895)" filter="url(#llleaves-blur-2)" opacity="0.58"></path><path d="M73 734H123C151 734 173 756 173 784H123C95 784 73 762 73 734Z " transform="matrix(-0.2904742359118894,-0.34617371420405213,0.34617371420405213,-0.2904742359118894,-104.0175180637132,1022.0493119042226)" opacity="0.69"></path><path d="M212 513H262C290 513 312 535 312 563H262C234 563 212 541 212 513Z " transform="matrix(0.01798034151697904,-0.5148896137935303,0.5148896137935303,0.01798034151697904,-19.72146169836782,663.2276550777702)" opacity="0.79"></path><path d="M524 286H574C602 286 624 308 624 336H574C546 336 524 314 524 286Z " transform="matrix(-0.15718637189327525,-0.45650237107484726,0.45650237107484726,-0.15718637189327525,522.2527400624625,621.9173226557709)" opacity="0.74"></path><path d="M704 128H754C782 128 804 150 804 178H754C726 178 704 156 704 128Z " transform="matrix(-0.36915766640088626,0.019346733501380192,-0.019346733501380192,-0.36915766640088626,1035.3049306919793,194.8936858992949)" filter="url(#llleaves-blur-2)" opacity="0.57"></path><path d="M504 548H554C582 548 604 570 604 598H554C526 598 504 576 504 548Z " transform="matrix(-0.11878985029395409,-0.4764400666565683,0.4764400666565683,-0.11878985029395409,346.80941886863695,905.0143811461746)" opacity="0.75"></path><path d="M-4 602H46C74 602 96 624 96 652H46C18 652 -4 630 -4 602Z " transform="matrix(-0.3843643691658147,-0.10299012231727778,0.10299012231727778,-0.3843643691658147,-0.8940457113056937,872.7340050935607)" filter="url(#llleaves-blur-2)" opacity="0.61"></path><path d="M176 423H226C254 423 276 445 276 473H226C198 473 176 451 176 423Z " transform="matrix(-0.05256462832307125,-0.5001190312664514,0.5001190312664514,-0.05256462832307125,13.826279993643851,584.5758545549539)" opacity="0.77"></path><path d="M80 640H130C158 640 180 662 180 690H130C102 690 80 668 80 640Z " transform="matrix(-0.2904742359118894,-0.34617371420405213,0.34617371420405213,-0.2904742359118894,-62.443869277149076,903.1679497279332)" opacity="0.69"></path><path d="M101 538H151C179 538 201 560 201 588H151C123 588 101 566 101 538Z " transform="matrix(-0.21381439209697037,-0.4196343721577113,0.4196343721577113,-0.21381439209697037,-52.96817831814897,746.7422929464087)" opacity="0.72"></path></g></svg>