<svg xmlns="http://www.w3.org/2000/svg" version="1.1" xmlns:xlink="http://www.w3.org/1999/xlink" xmlns:svgjs="http://svgjs.dev/svgjs" width="1440" height="560" preserveAspectRatio="none" viewBox="0 0 1440 560"><g mask="url(&quot;#SvgjsMask1000&quot;)" fill="none"><rect width="1440" height="560" x="0" y="0" fill="#0e2a47"></rect><path d="M1298.75 357.84a15.35 15.35 0 1 0 30.66 1.6z" fill="#d3b714"></path><path d="M1342.87 76.44L1351.43 76.44L1351.43 80.88L1342.87 80.88z" stroke="#e73635"></path><path d="M347.56 387.92a48.27 48.27 0 1 0 1.22 96.54z" fill="#e73635"></path><path d="M526.91 287.94L547.42 287.94L547.42 308.45L526.91 308.45z" fill="#d3b714"></path><path d="M118.27 237.88 a18.33 18.33 0 1 0 36.66 0 a18.33 18.33 0 1 0 -36.66 0z" stroke="#d3b714"></path><path d="M13.68 549.31 a20.62 20.62 0 1 0 41.24 0 a20.62 20.62 0 1 0 -41.24 0z" stroke="#037b0b"></path><path d="M1310.24 347.39L1312.94 347.39L1312.94 350.09L1310.24 350.09z" fill="#e73635"></path><path d="M216.28 442.2 a49.03 49.03 0 1 0 98.06 0 a49.03 49.03 0 1 0 -98.06 0z" stroke="#e73635"></path><path d="M684.35 36.69L729.34 36.69L729.34 81.68L684.35 81.68z" fill="#d3b714"></path><path d="M791.07 343.74a30.26 30.26 0 1 0 17.86 57.83z" stroke="#e73635"></path><path d="M838.38 516.49 a13.34 13.34 0 1 0 26.68 0 a13.34 13.34 0 1 0 -26.68 0z" stroke="#037b0b"></path><path d="M1345.73 399.34L1391.25 399.34L1391.25 444.86L1345.73 444.86z" stroke="#e73635"></path><path d="M632.15 4.17L658.74 4.17L658.74 47.56L632.15 47.56z" stroke="#e73635"></path><path d="M1318.19 88.99a14.55 14.55 0 1 0 6.22 28.43z" stroke="#037b0b"></path><path d="M201.6 536.44L243.66 536.44L243.66 578.5L201.6 578.5z" stroke="#e73635"></path><path d="M437.47 308.82L461.04 308.82L461.04 339.45L437.47 339.45z" fill="#e73635"></path><path d="M1116.2 538.25a36.4 36.4 0 1 0 72.38 7.88z" stroke="#037b0b"></path><path d="M509.77 209.08 a8.31 8.31 0 1 0 16.62 0 a8.31 8.31 0 1 0 -16.62 0z" fill="#e73635"></path><path d="M1136.98 145.09L1140.54 145.09L1140.54 180.25L1136.98 180.25z" fill="#d3b714"></path><path d="M160.82 291.06L211.68 291.06L211.68 310.82L160.82 310.82z" fill="#e73635"></path><path d="M1179.77 251.57a27.34 27.34 0 1 0 49.5 23.24z" fill="#d3b714"></path><path d="M1100.57 232.92a31.23 31.23 0 1 0 33.14 52.95z" stroke="#037b0b"></path><path d="M569.14 239.25a50.92 50.92 0 1 0-100.22-18.09z" fill="#d3b714"></path><path d="M1342.56 543.01L1356.04 543.01L1356.04 553.6L1342.56 553.6z" fill="#037b0b"></path><path d="M1026.16 275.59 a52.65 52.65 0 1 0 105.3 0 a52.65 52.65 0 1 0 -105.3 0z" stroke="#d3b714"></path><path d="M-0.95 111.26 a16.86 16.86 0 1 0 33.72 0 a16.86 16.86 0 1 0 -33.72 0z" fill="#e73635"></path><path d="M156.3 496.77a3.65 3.65 0 1 0 0.03-7.3z" stroke="#037b0b"></path><path d="M849.01 359.42a22.17 22.17 0 1 0-44.17-3.84z" fill="#e73635"></path><path d="M1186.08 480.71L1198.38 480.71L1198.38 510.48L1186.08 510.48z" stroke="#037b0b"></path><path d="M819.86 457.06 a55.59 55.59 0 1 0 111.18 0 a55.59 55.59 0 1 0 -111.18 0z" fill="#037b0b"></path><path d="M124.94 22.02 a26.63 26.63 0 1 0 53.26 0 a26.63 26.63 0 1 0 -53.26 0z" stroke="#e73635"></path><path d="M249.15 164.33a24.35 24.35 0 1 0-37.02 31.64z" fill="#e73635"></path><path d="M932.62 468.43a34.45 34.45 0 1 0 65.06-22.7z" fill="#e73635"></path></g><defs><mask id="SvgjsMask1000"><rect width="1440" height="560" fill="#ffffff"></rect></mask></defs></svg>