<svg xmlns="http://www.w3.org/2000/svg" version="1.1" xmlns:xlink="http://www.w3.org/1999/xlink" xmlns:svgjs="http://svgjs.dev/svgjs" viewBox="0 0 800 800"><defs><linearGradient gradientTransform="rotate(270)" x1="50%" y1="0%" x2="50%" y2="100%" id="sssquiggly-grad"><stop stop-color="hsl(206, 75%, 49%)" stop-opacity="1" offset="0%"></stop><stop stop-color="hsl(331, 90%, 56%)" stop-opacity="1" offset="100%"></stop></linearGradient></defs><g stroke-width="2" stroke="url(#sssquiggly-grad)" fill="none" stroke-linecap="round" transform="matrix(1,0,0,1,0,-248.68095207214355)"><path d="M10,10C21.805555555555557,13.75,40.97222222222223,33.833333333333336,66.66666666666667,28C92.36111111111111,22.166666666666664,105.55555555555557,-17.791666666666668,133.33333333333334,-18C161.11111111111111,-18.208333333333332,172.22222222222223,25.125,200,27C227.77777777777777,28.875,238.8888888888889,-7.958333333333333,266.6666666666667,-9C294.44444444444446,-10.041666666666666,305.5555555555556,22.208333333333332,333.33333333333337,22C361.11111111111114,21.791666666666668,372.22222222222223,-15.416666666666666,400,-10C427.77777777777777,-4.583333333333334,438.8888888888889,46.125,466.6666666666667,48C494.44444444444446,49.875,505.5555555555556,2.958333333333333,533.3333333333334,-1C561.1111111111111,-4.958333333333333,572.2222222222222,31.291666666666668,600,29C627.7777777777778,26.708333333333332,638.8888888888889,-17.416666666666664,666.6666666666667,-12C694.4444444444446,-6.583333333333334,707.6388888888889,50.416666666666664,733.3333333333334,55C759.0277777777778,59.583333333333336,778.1944444444445,19.375,790,10"></path><path d="M10,10C21.805555555555557,13.75,40.97222222222223,33.833333333333336,66.66666666666667,28C92.36111111111111,22.166666666666664,105.55555555555557,-17.791666666666668,133.33333333333334,-18C161.11111111111111,-18.208333333333332,172.22222222222223,25.125,200,27C227.77777777777777,28.875,238.8888888888889,-7.958333333333333,266.6666666666667,-9C294.44444444444446,-10.041666666666666,305.5555555555556,22.208333333333332,333.33333333333337,22C361.11111111111114,21.791666666666668,372.22222222222223,-15.416666666666666,400,-10C427.77777777777777,-4.583333333333334,438.8888888888889,46.125,466.6666666666667,48C494.44444444444446,49.875,505.5555555555556,2.958333333333333,533.3333333333334,-1C561.1111111111111,-4.958333333333333,572.2222222222222,31.291666666666668,600,29C627.7777777777778,26.708333333333332,638.8888888888889,-17.416666666666664,666.6666666666667,-12C694.4444444444446,-6.583333333333334,707.6388888888889,50.416666666666664,733.3333333333334,55C759.0277777777778,59.583333333333336,778.1944444444445,19.375,790,10" transform="matrix(1,0,0,1,0,1260)"></path><path d="M10,10C21.805555555555557,13.75,40.97222222222223,33.833333333333336,66.66666666666667,28C92.36111111111111,22.166666666666664,105.55555555555557,-17.791666666666668,133.33333333333334,-18C161.11111111111111,-18.208333333333332,172.22222222222223,25.125,200,27C227.77777777777777,28.875,238.8888888888889,-7.958333333333333,266.6666666666667,-9C294.44444444444446,-10.041666666666666,305.5555555555556,22.208333333333332,333.33333333333337,22C361.11111111111114,21.791666666666668,372.22222222222223,-15.416666666666666,400,-10C427.77777777777777,-4.583333333333334,438.8888888888889,46.125,466.6666666666667,48C494.44444444444446,49.875,505.5555555555556,2.958333333333333,533.3333333333334,-1C561.1111111111111,-4.958333333333333,572.2222222222222,31.291666666666668,600,29C627.7777777777778,26.708333333333332,638.8888888888889,-17.416666666666664,666.6666666666667,-12C694.4444444444446,-6.583333333333334,707.6388888888889,50.416666666666664,733.3333333333334,55C759.0277777777778,59.583333333333336,778.1944444444445,19.375,790,10" transform="matrix(1,0,0,1,0,1225)"></path><path d="M10,10C21.805555555555557,13.75,40.97222222222223,33.833333333333336,66.66666666666667,28C92.36111111111111,22.166666666666664,105.55555555555557,-17.791666666666668,133.33333333333334,-18C161.11111111111111,-18.208333333333332,172.22222222222223,25.125,200,27C227.77777777777777,28.875,238.8888888888889,-7.958333333333333,266.6666666666667,-9C294.44444444444446,-10.041666666666666,305.5555555555556,22.208333333333332,333.33333333333337,22C361.11111111111114,21.791666666666668,372.22222222222223,-15.416666666666666,400,-10C427.77777777777777,-4.583333333333334,438.8888888888889,46.125,466.6666666666667,48C494.44444444444446,49.875,505.5555555555556,2.958333333333333,533.3333333333334,-1C561.1111111111111,-4.958333333333333,572.2222222222222,31.291666666666668,600,29C627.7777777777778,26.708333333333332,638.8888888888889,-17.416666666666664,666.6666666666667,-12C694.4444444444446,-6.583333333333334,707.6388888888889,50.416666666666664,733.3333333333334,55C759.0277777777778,59.583333333333336,778.1944444444445,19.375,790,10" transform="matrix(1,0,0,1,0,1190)"></path><path d="M10,10C21.805555555555557,13.75,40.97222222222223,33.833333333333336,66.66666666666667,28C92.36111111111111,22.166666666666664,105.55555555555557,-17.791666666666668,133.33333333333334,-18C161.11111111111111,-18.208333333333332,172.22222222222223,25.125,200,27C227.77777777777777,28.875,238.8888888888889,-7.958333333333333,266.6666666666667,-9C294.44444444444446,-10.041666666666666,305.5555555555556,22.208333333333332,333.33333333333337,22C361.11111111111114,21.791666666666668,372.22222222222223,-15.416666666666666,400,-10C427.77777777777777,-4.583333333333334,438.8888888888889,46.125,466.6666666666667,48C494.44444444444446,49.875,505.5555555555556,2.958333333333333,533.3333333333334,-1C561.1111111111111,-4.958333333333333,572.2222222222222,31.291666666666668,600,29C627.7777777777778,26.708333333333332,638.8888888888889,-17.416666666666664,666.6666666666667,-12C694.4444444444446,-6.583333333333334,707.6388888888889,50.416666666666664,733.3333333333334,55C759.0277777777778,59.583333333333336,778.1944444444445,19.375,790,10" transform="matrix(1,0,0,1,0,1155)"></path><path d="M10,10C21.805555555555557,13.75,40.97222222222223,33.833333333333336,66.66666666666667,28C92.36111111111111,22.166666666666664,105.55555555555557,-17.791666666666668,133.33333333333334,-18C161.11111111111111,-18.208333333333332,172.22222222222223,25.125,200,27C227.77777777777777,28.875,238.8888888888889,-7.958333333333333,266.6666666666667,-9C294.44444444444446,-10.041666666666666,305.5555555555556,22.208333333333332,333.33333333333337,22C361.11111111111114,21.791666666666668,372.22222222222223,-15.416666666666666,400,-10C427.77777777777777,-4.583333333333334,438.8888888888889,46.125,466.6666666666667,48C494.44444444444446,49.875,505.5555555555556,2.958333333333333,533.3333333333334,-1C561.1111111111111,-4.958333333333333,572.2222222222222,31.291666666666668,600,29C627.7777777777778,26.708333333333332,638.8888888888889,-17.416666666666664,666.6666666666667,-12C694.4444444444446,-6.583333333333334,707.6388888888889,50.416666666666664,733.3333333333334,55C759.0277777777778,59.583333333333336,778.1944444444445,19.375,790,10" transform="matrix(1,0,0,1,0,1120)"></path><path d="M10,10C21.805555555555557,13.75,40.97222222222223,33.833333333333336,66.66666666666667,28C92.36111111111111,22.166666666666664,105.55555555555557,-17.791666666666668,133.33333333333334,-18C161.11111111111111,-18.208333333333332,172.22222222222223,25.125,200,27C227.77777777777777,28.875,238.8888888888889,-7.958333333333333,266.6666666666667,-9C294.44444444444446,-10.041666666666666,305.5555555555556,22.208333333333332,333.33333333333337,22C361.11111111111114,21.791666666666668,372.22222222222223,-15.416666666666666,400,-10C427.77777777777777,-4.583333333333334,438.8888888888889,46.125,466.6666666666667,48C494.44444444444446,49.875,505.5555555555556,2.958333333333333,533.3333333333334,-1C561.1111111111111,-4.958333333333333,572.2222222222222,31.291666666666668,600,29C627.7777777777778,26.708333333333332,638.8888888888889,-17.416666666666664,666.6666666666667,-12C694.4444444444446,-6.583333333333334,707.6388888888889,50.416666666666664,733.3333333333334,55C759.0277777777778,59.583333333333336,778.1944444444445,19.375,790,10" transform="matrix(1,0,0,1,0,1085)"></path><path d="M10,10C21.805555555555557,13.75,40.97222222222223,33.833333333333336,66.66666666666667,28C92.36111111111111,22.166666666666664,105.55555555555557,-17.791666666666668,133.33333333333334,-18C161.11111111111111,-18.208333333333332,172.22222222222223,25.125,200,27C227.77777777777777,28.875,238.8888888888889,-7.958333333333333,266.6666666666667,-9C294.44444444444446,-10.041666666666666,305.5555555555556,22.208333333333332,333.33333333333337,22C361.11111111111114,21.791666666666668,372.22222222222223,-15.416666666666666,400,-10C427.77777777777777,-4.583333333333334,438.8888888888889,46.125,466.6666666666667,48C494.44444444444446,49.875,505.5555555555556,2.958333333333333,533.3333333333334,-1C561.1111111111111,-4.958333333333333,572.2222222222222,31.291666666666668,600,29C627.7777777777778,26.708333333333332,638.8888888888889,-17.416666666666664,666.6666666666667,-12C694.4444444444446,-6.583333333333334,707.6388888888889,50.416666666666664,733.3333333333334,55C759.0277777777778,59.583333333333336,778.1944444444445,19.375,790,10" transform="matrix(1,0,0,1,0,1050)"></path><path d="M10,10C21.805555555555557,13.75,40.97222222222223,33.833333333333336,66.66666666666667,28C92.36111111111111,22.166666666666664,105.55555555555557,-17.791666666666668,133.33333333333334,-18C161.11111111111111,-18.208333333333332,172.22222222222223,25.125,200,27C227.77777777777777,28.875,238.8888888888889,-7.958333333333333,266.6666666666667,-9C294.44444444444446,-10.041666666666666,305.5555555555556,22.208333333333332,333.33333333333337,22C361.11111111111114,21.791666666666668,372.22222222222223,-15.416666666666666,400,-10C427.77777777777777,-4.583333333333334,438.8888888888889,46.125,466.6666666666667,48C494.44444444444446,49.875,505.5555555555556,2.958333333333333,533.3333333333334,-1C561.1111111111111,-4.958333333333333,572.2222222222222,31.291666666666668,600,29C627.7777777777778,26.708333333333332,638.8888888888889,-17.416666666666664,666.6666666666667,-12C694.4444444444446,-6.583333333333334,707.6388888888889,50.416666666666664,733.3333333333334,55C759.0277777777778,59.583333333333336,778.1944444444445,19.375,790,10" transform="matrix(1,0,0,1,0,1015)"></path><path d="M10,10C21.805555555555557,13.75,40.97222222222223,33.833333333333336,66.66666666666667,28C92.36111111111111,22.166666666666664,105.55555555555557,-17.791666666666668,133.33333333333334,-18C161.11111111111111,-18.208333333333332,172.22222222222223,25.125,200,27C227.77777777777777,28.875,238.8888888888889,-7.958333333333333,266.6666666666667,-9C294.44444444444446,-10.041666666666666,305.5555555555556,22.208333333333332,333.33333333333337,22C361.11111111111114,21.791666666666668,372.22222222222223,-15.416666666666666,400,-10C427.77777777777777,-4.583333333333334,438.8888888888889,46.125,466.6666666666667,48C494.44444444444446,49.875,505.5555555555556,2.958333333333333,533.3333333333334,-1C561.1111111111111,-4.958333333333333,572.2222222222222,31.291666666666668,600,29C627.7777777777778,26.708333333333332,638.8888888888889,-17.416666666666664,666.6666666666667,-12C694.4444444444446,-6.583333333333334,707.6388888888889,50.416666666666664,733.3333333333334,55C759.0277777777778,59.583333333333336,778.1944444444445,19.375,790,10" transform="matrix(1,0,0,1,0,980)"></path><path d="M10,10C21.805555555555557,13.75,40.97222222222223,33.833333333333336,66.66666666666667,28C92.36111111111111,22.166666666666664,105.55555555555557,-17.791666666666668,133.33333333333334,-18C161.11111111111111,-18.208333333333332,172.22222222222223,25.125,200,27C227.77777777777777,28.875,238.8888888888889,-7.958333333333333,266.6666666666667,-9C294.44444444444446,-10.041666666666666,305.5555555555556,22.208333333333332,333.33333333333337,22C361.11111111111114,21.791666666666668,372.22222222222223,-15.416666666666666,400,-10C427.77777777777777,-4.583333333333334,438.8888888888889,46.125,466.6666666666667,48C494.44444444444446,49.875,505.5555555555556,2.958333333333333,533.3333333333334,-1C561.1111111111111,-4.958333333333333,572.2222222222222,31.291666666666668,600,29C627.7777777777778,26.708333333333332,638.8888888888889,-17.416666666666664,666.6666666666667,-12C694.4444444444446,-6.583333333333334,707.6388888888889,50.416666666666664,733.3333333333334,55C759.0277777777778,59.583333333333336,778.1944444444445,19.375,790,10" transform="matrix(1,0,0,1,0,945)"></path><path d="M10,10C21.805555555555557,13.75,40.97222222222223,33.833333333333336,66.66666666666667,28C92.36111111111111,22.166666666666664,105.55555555555557,-17.791666666666668,133.33333333333334,-18C161.11111111111111,-18.208333333333332,172.22222222222223,25.125,200,27C227.77777777777777,28.875,238.8888888888889,-7.958333333333333,266.6666666666667,-9C294.44444444444446,-10.041666666666666,305.5555555555556,22.208333333333332,333.33333333333337,22C361.11111111111114,21.791666666666668,372.22222222222223,-15.416666666666666,400,-10C427.77777777777777,-4.583333333333334,438.8888888888889,46.125,466.6666666666667,48C494.44444444444446,49.875,505.5555555555556,2.958333333333333,533.3333333333334,-1C561.1111111111111,-4.958333333333333,572.2222222222222,31.291666666666668,600,29C627.7777777777778,26.708333333333332,638.8888888888889,-17.416666666666664,666.6666666666667,-12C694.4444444444446,-6.583333333333334,707.6388888888889,50.416666666666664,733.3333333333334,55C759.0277777777778,59.583333333333336,778.1944444444445,19.375,790,10" transform="matrix(1,0,0,1,0,910)"></path><path d="M10,10C21.805555555555557,13.75,40.97222222222223,33.833333333333336,66.66666666666667,28C92.36111111111111,22.166666666666664,105.55555555555557,-17.791666666666668,133.33333333333334,-18C161.11111111111111,-18.208333333333332,172.22222222222223,25.125,200,27C227.77777777777777,28.875,238.8888888888889,-7.958333333333333,266.6666666666667,-9C294.44444444444446,-10.041666666666666,305.5555555555556,22.208333333333332,333.33333333333337,22C361.11111111111114,21.791666666666668,372.22222222222223,-15.416666666666666,400,-10C427.77777777777777,-4.583333333333334,438.8888888888889,46.125,466.6666666666667,48C494.44444444444446,49.875,505.5555555555556,2.958333333333333,533.3333333333334,-1C561.1111111111111,-4.958333333333333,572.2222222222222,31.291666666666668,600,29C627.7777777777778,26.708333333333332,638.8888888888889,-17.416666666666664,666.6666666666667,-12C694.4444444444446,-6.583333333333334,707.6388888888889,50.416666666666664,733.3333333333334,55C759.0277777777778,59.583333333333336,778.1944444444445,19.375,790,10" transform="matrix(1,0,0,1,0,875)"></path><path d="M10,10C21.805555555555557,13.75,40.97222222222223,33.833333333333336,66.66666666666667,28C92.36111111111111,22.166666666666664,105.55555555555557,-17.791666666666668,133.33333333333334,-18C161.11111111111111,-18.208333333333332,172.22222222222223,25.125,200,27C227.77777777777777,28.875,238.8888888888889,-7.958333333333333,266.6666666666667,-9C294.44444444444446,-10.041666666666666,305.5555555555556,22.208333333333332,333.33333333333337,22C361.11111111111114,21.791666666666668,372.22222222222223,-15.416666666666666,400,-10C427.77777777777777,-4.583333333333334,438.8888888888889,46.125,466.6666666666667,48C494.44444444444446,49.875,505.5555555555556,2.958333333333333,533.3333333333334,-1C561.1111111111111,-4.958333333333333,572.2222222222222,31.291666666666668,600,29C627.7777777777778,26.708333333333332,638.8888888888889,-17.416666666666664,666.6666666666667,-12C694.4444444444446,-6.583333333333334,707.6388888888889,50.416666666666664,733.3333333333334,55C759.0277777777778,59.583333333333336,778.1944444444445,19.375,790,10" transform="matrix(1,0,0,1,0,840)"></path><path d="M10,10C21.805555555555557,13.75,40.97222222222223,33.833333333333336,66.66666666666667,28C92.36111111111111,22.166666666666664,105.55555555555557,-17.791666666666668,133.33333333333334,-18C161.11111111111111,-18.208333333333332,172.22222222222223,25.125,200,27C227.77777777777777,28.875,238.8888888888889,-7.958333333333333,266.6666666666667,-9C294.44444444444446,-10.041666666666666,305.5555555555556,22.208333333333332,333.33333333333337,22C361.11111111111114,21.791666666666668,372.22222222222223,-15.416666666666666,400,-10C427.77777777777777,-4.583333333333334,438.8888888888889,46.125,466.6666666666667,48C494.44444444444446,49.875,505.5555555555556,2.958333333333333,533.3333333333334,-1C561.1111111111111,-4.958333333333333,572.2222222222222,31.291666666666668,600,29C627.7777777777778,26.708333333333332,638.8888888888889,-17.416666666666664,666.6666666666667,-12C694.4444444444446,-6.583333333333334,707.6388888888889,50.416666666666664,733.3333333333334,55C759.0277777777778,59.583333333333336,778.1944444444445,19.375,790,10" transform="matrix(1,0,0,1,0,805)"></path><path d="M10,10C21.805555555555557,13.75,40.97222222222223,33.833333333333336,66.66666666666667,28C92.36111111111111,22.166666666666664,105.55555555555557,-17.791666666666668,133.33333333333334,-18C161.11111111111111,-18.208333333333332,172.22222222222223,25.125,200,27C227.77777777777777,28.875,238.8888888888889,-7.958333333333333,266.6666666666667,-9C294.44444444444446,-10.041666666666666,305.5555555555556,22.208333333333332,333.33333333333337,22C361.11111111111114,21.791666666666668,372.22222222222223,-15.416666666666666,400,-10C427.77777777777777,-4.583333333333334,438.8888888888889,46.125,466.6666666666667,48C494.44444444444446,49.875,505.5555555555556,2.958333333333333,533.3333333333334,-1C561.1111111111111,-4.958333333333333,572.2222222222222,31.291666666666668,600,29C627.7777777777778,26.708333333333332,638.8888888888889,-17.416666666666664,666.6666666666667,-12C694.4444444444446,-6.583333333333334,707.6388888888889,50.416666666666664,733.3333333333334,55C759.0277777777778,59.583333333333336,778.1944444444445,19.375,790,10" transform="matrix(1,0,0,1,0,770)"></path><path d="M10,10C21.805555555555557,13.75,40.97222222222223,33.833333333333336,66.66666666666667,28C92.36111111111111,22.166666666666664,105.55555555555557,-17.791666666666668,133.33333333333334,-18C161.11111111111111,-18.208333333333332,172.22222222222223,25.125,200,27C227.77777777777777,28.875,238.8888888888889,-7.958333333333333,266.6666666666667,-9C294.44444444444446,-10.041666666666666,305.5555555555556,22.208333333333332,333.33333333333337,22C361.11111111111114,21.791666666666668,372.22222222222223,-15.416666666666666,400,-10C427.77777777777777,-4.583333333333334,438.8888888888889,46.125,466.6666666666667,48C494.44444444444446,49.875,505.5555555555556,2.958333333333333,533.3333333333334,-1C561.1111111111111,-4.958333333333333,572.2222222222222,31.291666666666668,600,29C627.7777777777778,26.708333333333332,638.8888888888889,-17.416666666666664,666.6666666666667,-12C694.4444444444446,-6.583333333333334,707.6388888888889,50.416666666666664,733.3333333333334,55C759.0277777777778,59.583333333333336,778.1944444444445,19.375,790,10" transform="matrix(1,0,0,1,0,735)"></path><path d="M10,10C21.805555555555557,13.75,40.97222222222223,33.833333333333336,66.66666666666667,28C92.36111111111111,22.166666666666664,105.55555555555557,-17.791666666666668,133.33333333333334,-18C161.11111111111111,-18.208333333333332,172.22222222222223,25.125,200,27C227.77777777777777,28.875,238.8888888888889,-7.958333333333333,266.6666666666667,-9C294.44444444444446,-10.041666666666666,305.5555555555556,22.208333333333332,333.33333333333337,22C361.11111111111114,21.791666666666668,372.22222222222223,-15.416666666666666,400,-10C427.77777777777777,-4.583333333333334,438.8888888888889,46.125,466.6666666666667,48C494.44444444444446,49.875,505.5555555555556,2.958333333333333,533.3333333333334,-1C561.1111111111111,-4.958333333333333,572.2222222222222,31.291666666666668,600,29C627.7777777777778,26.708333333333332,638.8888888888889,-17.416666666666664,666.6666666666667,-12C694.4444444444446,-6.583333333333334,707.6388888888889,50.416666666666664,733.3333333333334,55C759.0277777777778,59.583333333333336,778.1944444444445,19.375,790,10" transform="matrix(1,0,0,1,0,700)"></path><path d="M10,10C21.805555555555557,13.75,40.97222222222223,33.833333333333336,66.66666666666667,28C92.36111111111111,22.166666666666664,105.55555555555557,-17.791666666666668,133.33333333333334,-18C161.11111111111111,-18.208333333333332,172.22222222222223,25.125,200,27C227.77777777777777,28.875,238.8888888888889,-7.958333333333333,266.6666666666667,-9C294.44444444444446,-10.041666666666666,305.5555555555556,22.208333333333332,333.33333333333337,22C361.11111111111114,21.791666666666668,372.22222222222223,-15.416666666666666,400,-10C427.77777777777777,-4.583333333333334,438.8888888888889,46.125,466.6666666666667,48C494.44444444444446,49.875,505.5555555555556,2.958333333333333,533.3333333333334,-1C561.1111111111111,-4.958333333333333,572.2222222222222,31.291666666666668,600,29C627.7777777777778,26.708333333333332,638.8888888888889,-17.416666666666664,666.6666666666667,-12C694.4444444444446,-6.583333333333334,707.6388888888889,50.416666666666664,733.3333333333334,55C759.0277777777778,59.583333333333336,778.1944444444445,19.375,790,10" transform="matrix(1,0,0,1,0,665)"></path><path d="M10,10C21.805555555555557,13.75,40.97222222222223,33.833333333333336,66.66666666666667,28C92.36111111111111,22.166666666666664,105.55555555555557,-17.791666666666668,133.33333333333334,-18C161.11111111111111,-18.208333333333332,172.22222222222223,25.125,200,27C227.77777777777777,28.875,238.8888888888889,-7.958333333333333,266.6666666666667,-9C294.44444444444446,-10.041666666666666,305.5555555555556,22.208333333333332,333.33333333333337,22C361.11111111111114,21.791666666666668,372.22222222222223,-15.416666666666666,400,-10C427.77777777777777,-4.583333333333334,438.8888888888889,46.125,466.6666666666667,48C494.44444444444446,49.875,505.5555555555556,2.958333333333333,533.3333333333334,-1C561.1111111111111,-4.958333333333333,572.2222222222222,31.291666666666668,600,29C627.7777777777778,26.708333333333332,638.8888888888889,-17.416666666666664,666.6666666666667,-12C694.4444444444446,-6.583333333333334,707.6388888888889,50.416666666666664,733.3333333333334,55C759.0277777777778,59.583333333333336,778.1944444444445,19.375,790,10" transform="matrix(1,0,0,1,0,630)"></path><path d="M10,10C21.805555555555557,13.75,40.97222222222223,33.833333333333336,66.66666666666667,28C92.36111111111111,22.166666666666664,105.55555555555557,-17.791666666666668,133.33333333333334,-18C161.11111111111111,-18.208333333333332,172.22222222222223,25.125,200,27C227.77777777777777,28.875,238.8888888888889,-7.958333333333333,266.6666666666667,-9C294.44444444444446,-10.041666666666666,305.5555555555556,22.208333333333332,333.33333333333337,22C361.11111111111114,21.791666666666668,372.22222222222223,-15.416666666666666,400,-10C427.77777777777777,-4.583333333333334,438.8888888888889,46.125,466.6666666666667,48C494.44444444444446,49.875,505.5555555555556,2.958333333333333,533.3333333333334,-1C561.1111111111111,-4.958333333333333,572.2222222222222,31.291666666666668,600,29C627.7777777777778,26.708333333333332,638.8888888888889,-17.416666666666664,666.6666666666667,-12C694.4444444444446,-6.583333333333334,707.6388888888889,50.416666666666664,733.3333333333334,55C759.0277777777778,59.583333333333336,778.1944444444445,19.375,790,10" transform="matrix(1,0,0,1,0,595)"></path><path d="M10,10C21.805555555555557,13.75,40.97222222222223,33.833333333333336,66.66666666666667,28C92.36111111111111,22.166666666666664,105.55555555555557,-17.791666666666668,133.33333333333334,-18C161.11111111111111,-18.208333333333332,172.22222222222223,25.125,200,27C227.77777777777777,28.875,238.8888888888889,-7.958333333333333,266.6666666666667,-9C294.44444444444446,-10.041666666666666,305.5555555555556,22.208333333333332,333.33333333333337,22C361.11111111111114,21.791666666666668,372.22222222222223,-15.416666666666666,400,-10C427.77777777777777,-4.583333333333334,438.8888888888889,46.125,466.6666666666667,48C494.44444444444446,49.875,505.5555555555556,2.958333333333333,533.3333333333334,-1C561.1111111111111,-4.958333333333333,572.2222222222222,31.291666666666668,600,29C627.7777777777778,26.708333333333332,638.8888888888889,-17.416666666666664,666.6666666666667,-12C694.4444444444446,-6.583333333333334,707.6388888888889,50.416666666666664,733.3333333333334,55C759.0277777777778,59.583333333333336,778.1944444444445,19.375,790,10" transform="matrix(1,0,0,1,0,560)"></path><path d="M10,10C21.805555555555557,13.75,40.97222222222223,33.833333333333336,66.66666666666667,28C92.36111111111111,22.166666666666664,105.55555555555557,-17.791666666666668,133.33333333333334,-18C161.11111111111111,-18.208333333333332,172.22222222222223,25.125,200,27C227.77777777777777,28.875,238.8888888888889,-7.958333333333333,266.6666666666667,-9C294.44444444444446,-10.041666666666666,305.5555555555556,22.208333333333332,333.33333333333337,22C361.11111111111114,21.791666666666668,372.22222222222223,-15.416666666666666,400,-10C427.77777777777777,-4.583333333333334,438.8888888888889,46.125,466.6666666666667,48C494.44444444444446,49.875,505.5555555555556,2.958333333333333,533.3333333333334,-1C561.1111111111111,-4.958333333333333,572.2222222222222,31.291666666666668,600,29C627.7777777777778,26.708333333333332,638.8888888888889,-17.416666666666664,666.6666666666667,-12C694.4444444444446,-6.583333333333334,707.6388888888889,50.416666666666664,733.3333333333334,55C759.0277777777778,59.583333333333336,778.1944444444445,19.375,790,10" transform="matrix(1,0,0,1,0,525)"></path><path d="M10,10C21.805555555555557,13.75,40.97222222222223,33.833333333333336,66.66666666666667,28C92.36111111111111,22.166666666666664,105.55555555555557,-17.791666666666668,133.33333333333334,-18C161.11111111111111,-18.208333333333332,172.22222222222223,25.125,200,27C227.77777777777777,28.875,238.8888888888889,-7.958333333333333,266.6666666666667,-9C294.44444444444446,-10.041666666666666,305.5555555555556,22.208333333333332,333.33333333333337,22C361.11111111111114,21.791666666666668,372.22222222222223,-15.416666666666666,400,-10C427.77777777777777,-4.583333333333334,438.8888888888889,46.125,466.6666666666667,48C494.44444444444446,49.875,505.5555555555556,2.958333333333333,533.3333333333334,-1C561.1111111111111,-4.958333333333333,572.2222222222222,31.291666666666668,600,29C627.7777777777778,26.708333333333332,638.8888888888889,-17.416666666666664,666.6666666666667,-12C694.4444444444446,-6.583333333333334,707.6388888888889,50.416666666666664,733.3333333333334,55C759.0277777777778,59.583333333333336,778.1944444444445,19.375,790,10" transform="matrix(1,0,0,1,0,490)"></path><path d="M10,10C21.805555555555557,13.75,40.97222222222223,33.833333333333336,66.66666666666667,28C92.36111111111111,22.166666666666664,105.55555555555557,-17.791666666666668,133.33333333333334,-18C161.11111111111111,-18.208333333333332,172.22222222222223,25.125,200,27C227.77777777777777,28.875,238.8888888888889,-7.958333333333333,266.6666666666667,-9C294.44444444444446,-10.041666666666666,305.5555555555556,22.208333333333332,333.33333333333337,22C361.11111111111114,21.791666666666668,372.22222222222223,-15.416666666666666,400,-10C427.77777777777777,-4.583333333333334,438.8888888888889,46.125,466.6666666666667,48C494.44444444444446,49.875,505.5555555555556,2.958333333333333,533.3333333333334,-1C561.1111111111111,-4.958333333333333,572.2222222222222,31.291666666666668,600,29C627.7777777777778,26.708333333333332,638.8888888888889,-17.416666666666664,666.6666666666667,-12C694.4444444444446,-6.583333333333334,707.6388888888889,50.416666666666664,733.3333333333334,55C759.0277777777778,59.583333333333336,778.1944444444445,19.375,790,10" transform="matrix(1,0,0,1,0,455)"></path><path d="M10,10C21.805555555555557,13.75,40.97222222222223,33.833333333333336,66.66666666666667,28C92.36111111111111,22.166666666666664,105.55555555555557,-17.791666666666668,133.33333333333334,-18C161.11111111111111,-18.208333333333332,172.22222222222223,25.125,200,27C227.77777777777777,28.875,238.8888888888889,-7.958333333333333,266.6666666666667,-9C294.44444444444446,-10.041666666666666,305.5555555555556,22.208333333333332,333.33333333333337,22C361.11111111111114,21.791666666666668,372.22222222222223,-15.416666666666666,400,-10C427.77777777777777,-4.583333333333334,438.8888888888889,46.125,466.6666666666667,48C494.44444444444446,49.875,505.5555555555556,2.958333333333333,533.3333333333334,-1C561.1111111111111,-4.958333333333333,572.2222222222222,31.291666666666668,600,29C627.7777777777778,26.708333333333332,638.8888888888889,-17.416666666666664,666.6666666666667,-12C694.4444444444446,-6.583333333333334,707.6388888888889,50.416666666666664,733.3333333333334,55C759.0277777777778,59.583333333333336,778.1944444444445,19.375,790,10" transform="matrix(1,0,0,1,0,420)"></path><path d="M10,10C21.805555555555557,13.75,40.97222222222223,33.833333333333336,66.66666666666667,28C92.36111111111111,22.166666666666664,105.55555555555557,-17.791666666666668,133.33333333333334,-18C161.11111111111111,-18.208333333333332,172.22222222222223,25.125,200,27C227.77777777777777,28.875,238.8888888888889,-7.958333333333333,266.6666666666667,-9C294.44444444444446,-10.041666666666666,305.5555555555556,22.208333333333332,333.33333333333337,22C361.11111111111114,21.791666666666668,372.22222222222223,-15.416666666666666,400,-10C427.77777777777777,-4.583333333333334,438.8888888888889,46.125,466.6666666666667,48C494.44444444444446,49.875,505.5555555555556,2.958333333333333,533.3333333333334,-1C561.1111111111111,-4.958333333333333,572.2222222222222,31.291666666666668,600,29C627.7777777777778,26.708333333333332,638.8888888888889,-17.416666666666664,666.6666666666667,-12C694.4444444444446,-6.583333333333334,707.6388888888889,50.416666666666664,733.3333333333334,55C759.0277777777778,59.583333333333336,778.1944444444445,19.375,790,10" transform="matrix(1,0,0,1,0,385)"></path><path d="M10,10C21.805555555555557,13.75,40.97222222222223,33.833333333333336,66.66666666666667,28C92.36111111111111,22.166666666666664,105.55555555555557,-17.791666666666668,133.33333333333334,-18C161.11111111111111,-18.208333333333332,172.22222222222223,25.125,200,27C227.77777777777777,28.875,238.8888888888889,-7.958333333333333,266.6666666666667,-9C294.44444444444446,-10.041666666666666,305.5555555555556,22.208333333333332,333.33333333333337,22C361.11111111111114,21.791666666666668,372.22222222222223,-15.416666666666666,400,-10C427.77777777777777,-4.583333333333334,438.8888888888889,46.125,466.6666666666667,48C494.44444444444446,49.875,505.5555555555556,2.958333333333333,533.3333333333334,-1C561.1111111111111,-4.958333333333333,572.2222222222222,31.291666666666668,600,29C627.7777777777778,26.708333333333332,638.8888888888889,-17.416666666666664,666.6666666666667,-12C694.4444444444446,-6.583333333333334,707.6388888888889,50.416666666666664,733.3333333333334,55C759.0277777777778,59.583333333333336,778.1944444444445,19.375,790,10" transform="matrix(1,0,0,1,0,350)"></path><path d="M10,10C21.805555555555557,13.75,40.97222222222223,33.833333333333336,66.66666666666667,28C92.36111111111111,22.166666666666664,105.55555555555557,-17.791666666666668,133.33333333333334,-18C161.11111111111111,-18.208333333333332,172.22222222222223,25.125,200,27C227.77777777777777,28.875,238.8888888888889,-7.958333333333333,266.6666666666667,-9C294.44444444444446,-10.041666666666666,305.5555555555556,22.208333333333332,333.33333333333337,22C361.11111111111114,21.791666666666668,372.22222222222223,-15.416666666666666,400,-10C427.77777777777777,-4.583333333333334,438.8888888888889,46.125,466.6666666666667,48C494.44444444444446,49.875,505.5555555555556,2.958333333333333,533.3333333333334,-1C561.1111111111111,-4.958333333333333,572.2222222222222,31.291666666666668,600,29C627.7777777777778,26.708333333333332,638.8888888888889,-17.416666666666664,666.6666666666667,-12C694.4444444444446,-6.583333333333334,707.6388888888889,50.416666666666664,733.3333333333334,55C759.0277777777778,59.583333333333336,778.1944444444445,19.375,790,10" transform="matrix(1,0,0,1,0,315)"></path><path d="M10,10C21.805555555555557,13.75,40.97222222222223,33.833333333333336,66.66666666666667,28C92.36111111111111,22.166666666666664,105.55555555555557,-17.791666666666668,133.33333333333334,-18C161.11111111111111,-18.208333333333332,172.22222222222223,25.125,200,27C227.77777777777777,28.875,238.8888888888889,-7.958333333333333,266.6666666666667,-9C294.44444444444446,-10.041666666666666,305.5555555555556,22.208333333333332,333.33333333333337,22C361.11111111111114,21.791666666666668,372.22222222222223,-15.416666666666666,400,-10C427.77777777777777,-4.583333333333334,438.8888888888889,46.125,466.6666666666667,48C494.44444444444446,49.875,505.5555555555556,2.958333333333333,533.3333333333334,-1C561.1111111111111,-4.958333333333333,572.2222222222222,31.291666666666668,600,29C627.7777777777778,26.708333333333332,638.8888888888889,-17.416666666666664,666.6666666666667,-12C694.4444444444446,-6.583333333333334,707.6388888888889,50.416666666666664,733.3333333333334,55C759.0277777777778,59.583333333333336,778.1944444444445,19.375,790,10" transform="matrix(1,0,0,1,0,280)"></path><path d="M10,10C21.805555555555557,13.75,40.97222222222223,33.833333333333336,66.66666666666667,28C92.36111111111111,22.166666666666664,105.55555555555557,-17.791666666666668,133.33333333333334,-18C161.11111111111111,-18.208333333333332,172.22222222222223,25.125,200,27C227.77777777777777,28.875,238.8888888888889,-7.958333333333333,266.6666666666667,-9C294.44444444444446,-10.041666666666666,305.5555555555556,22.208333333333332,333.33333333333337,22C361.11111111111114,21.791666666666668,372.22222222222223,-15.416666666666666,400,-10C427.77777777777777,-4.583333333333334,438.8888888888889,46.125,466.6666666666667,48C494.44444444444446,49.875,505.5555555555556,2.958333333333333,533.3333333333334,-1C561.1111111111111,-4.958333333333333,572.2222222222222,31.291666666666668,600,29C627.7777777777778,26.708333333333332,638.8888888888889,-17.416666666666664,666.6666666666667,-12C694.4444444444446,-6.583333333333334,707.6388888888889,50.416666666666664,733.3333333333334,55C759.0277777777778,59.583333333333336,778.1944444444445,19.375,790,10" transform="matrix(1,0,0,1,0,245)"></path><path d="M10,10C21.805555555555557,13.75,40.97222222222223,33.833333333333336,66.66666666666667,28C92.36111111111111,22.166666666666664,105.55555555555557,-17.791666666666668,133.33333333333334,-18C161.11111111111111,-18.208333333333332,172.22222222222223,25.125,200,27C227.77777777777777,28.875,238.8888888888889,-7.958333333333333,266.6666666666667,-9C294.44444444444446,-10.041666666666666,305.5555555555556,22.208333333333332,333.33333333333337,22C361.11111111111114,21.791666666666668,372.22222222222223,-15.416666666666666,400,-10C427.77777777777777,-4.583333333333334,438.8888888888889,46.125,466.6666666666667,48C494.44444444444446,49.875,505.5555555555556,2.958333333333333,533.3333333333334,-1C561.1111111111111,-4.958333333333333,572.2222222222222,31.291666666666668,600,29C627.7777777777778,26.708333333333332,638.8888888888889,-17.416666666666664,666.6666666666667,-12C694.4444444444446,-6.583333333333334,707.6388888888889,50.416666666666664,733.3333333333334,55C759.0277777777778,59.583333333333336,778.1944444444445,19.375,790,10" transform="matrix(1,0,0,1,0,210)"></path><path d="M10,10C21.805555555555557,13.75,40.97222222222223,33.833333333333336,66.66666666666667,28C92.36111111111111,22.166666666666664,105.55555555555557,-17.791666666666668,133.33333333333334,-18C161.11111111111111,-18.208333333333332,172.22222222222223,25.125,200,27C227.77777777777777,28.875,238.8888888888889,-7.958333333333333,266.6666666666667,-9C294.44444444444446,-10.041666666666666,305.5555555555556,22.208333333333332,333.33333333333337,22C361.11111111111114,21.791666666666668,372.22222222222223,-15.416666666666666,400,-10C427.77777777777777,-4.583333333333334,438.8888888888889,46.125,466.6666666666667,48C494.44444444444446,49.875,505.5555555555556,2.958333333333333,533.3333333333334,-1C561.1111111111111,-4.958333333333333,572.2222222222222,31.291666666666668,600,29C627.7777777777778,26.708333333333332,638.8888888888889,-17.416666666666664,666.6666666666667,-12C694.4444444444446,-6.583333333333334,707.6388888888889,50.416666666666664,733.3333333333334,55C759.0277777777778,59.583333333333336,778.1944444444445,19.375,790,10" transform="matrix(1,0,0,1,0,175)"></path><path d="M10,10C21.805555555555557,13.75,40.97222222222223,33.833333333333336,66.66666666666667,28C92.36111111111111,22.166666666666664,105.55555555555557,-17.791666666666668,133.33333333333334,-18C161.11111111111111,-18.208333333333332,172.22222222222223,25.125,200,27C227.77777777777777,28.875,238.8888888888889,-7.958333333333333,266.6666666666667,-9C294.44444444444446,-10.041666666666666,305.5555555555556,22.208333333333332,333.33333333333337,22C361.11111111111114,21.791666666666668,372.22222222222223,-15.416666666666666,400,-10C427.77777777777777,-4.583333333333334,438.8888888888889,46.125,466.6666666666667,48C494.44444444444446,49.875,505.5555555555556,2.958333333333333,533.3333333333334,-1C561.1111111111111,-4.958333333333333,572.2222222222222,31.291666666666668,600,29C627.7777777777778,26.708333333333332,638.8888888888889,-17.416666666666664,666.6666666666667,-12C694.4444444444446,-6.583333333333334,707.6388888888889,50.416666666666664,733.3333333333334,55C759.0277777777778,59.583333333333336,778.1944444444445,19.375,790,10" transform="matrix(1,0,0,1,0,140)"></path><path d="M10,10C21.805555555555557,13.75,40.97222222222223,33.833333333333336,66.66666666666667,28C92.36111111111111,22.166666666666664,105.55555555555557,-17.791666666666668,133.33333333333334,-18C161.11111111111111,-18.208333333333332,172.22222222222223,25.125,200,27C227.77777777777777,28.875,238.8888888888889,-7.958333333333333,266.6666666666667,-9C294.44444444444446,-10.041666666666666,305.5555555555556,22.208333333333332,333.33333333333337,22C361.11111111111114,21.791666666666668,372.22222222222223,-15.416666666666666,400,-10C427.77777777777777,-4.583333333333334,438.8888888888889,46.125,466.6666666666667,48C494.44444444444446,49.875,505.5555555555556,2.958333333333333,533.3333333333334,-1C561.1111111111111,-4.958333333333333,572.2222222222222,31.291666666666668,600,29C627.7777777777778,26.708333333333332,638.8888888888889,-17.416666666666664,666.6666666666667,-12C694.4444444444446,-6.583333333333334,707.6388888888889,50.416666666666664,733.3333333333334,55C759.0277777777778,59.583333333333336,778.1944444444445,19.375,790,10" transform="matrix(1,0,0,1,0,105)"></path><path d="M10,10C21.805555555555557,13.75,40.97222222222223,33.833333333333336,66.66666666666667,28C92.36111111111111,22.166666666666664,105.55555555555557,-17.791666666666668,133.33333333333334,-18C161.11111111111111,-18.208333333333332,172.22222222222223,25.125,200,27C227.77777777777777,28.875,238.8888888888889,-7.958333333333333,266.6666666666667,-9C294.44444444444446,-10.041666666666666,305.5555555555556,22.208333333333332,333.33333333333337,22C361.11111111111114,21.791666666666668,372.22222222222223,-15.416666666666666,400,-10C427.77777777777777,-4.583333333333334,438.8888888888889,46.125,466.6666666666667,48C494.44444444444446,49.875,505.5555555555556,2.958333333333333,533.3333333333334,-1C561.1111111111111,-4.958333333333333,572.2222222222222,31.291666666666668,600,29C627.7777777777778,26.708333333333332,638.8888888888889,-17.416666666666664,666.6666666666667,-12C694.4444444444446,-6.583333333333334,707.6388888888889,50.416666666666664,733.3333333333334,55C759.0277777777778,59.583333333333336,778.1944444444445,19.375,790,10" transform="matrix(1,0,0,1,0,70)"></path><path d="M10,10C21.805555555555557,13.75,40.97222222222223,33.833333333333336,66.66666666666667,28C92.36111111111111,22.166666666666664,105.55555555555557,-17.791666666666668,133.33333333333334,-18C161.11111111111111,-18.208333333333332,172.22222222222223,25.125,200,27C227.77777777777777,28.875,238.8888888888889,-7.958333333333333,266.6666666666667,-9C294.44444444444446,-10.041666666666666,305.5555555555556,22.208333333333332,333.33333333333337,22C361.11111111111114,21.791666666666668,372.22222222222223,-15.416666666666666,400,-10C427.77777777777777,-4.583333333333334,438.8888888888889,46.125,466.6666666666667,48C494.44444444444446,49.875,505.5555555555556,2.958333333333333,533.3333333333334,-1C561.1111111111111,-4.958333333333333,572.2222222222222,31.291666666666668,600,29C627.7777777777778,26.708333333333332,638.8888888888889,-17.416666666666664,666.6666666666667,-12C694.4444444444446,-6.583333333333334,707.6388888888889,50.416666666666664,733.3333333333334,55C759.0277777777778,59.583333333333336,778.1944444444445,19.375,790,10" transform="matrix(1,0,0,1,0,35)"></path></g></svg>